<?xml version="1.0" encoding="utf-8"?>
<!-- Generator: Adobe Illustrator 22.1.0, SVG Export Plug-In . SVG Version: 6.00 Build 0)  -->
<svg version="1.1" xmlns="http://www.w3.org/2000/svg" xmlns:xlink="http://www.w3.org/1999/xlink" x="0px" y="0px"
	 viewBox="0 0 31.9 32" style="enable-background:new 0 0 31.9 32;" xml:space="preserve">
<style type="text/css">
	.st0{fill:#FFFFFF;}
</style>
<g id="Layer_2">
	<rect x="-2.4" y="-2.1" class="st0" width="40.2" height="38.6"/>
</g>
<g id="Layer_1">
	<g>
		<g>
			<path d="M17.1,32c-0.3,0-0.6,0-1,0c-1.4,0.2-2.3-0.9-3.2-1.7c-0.9-0.7-1.5-1.7-2.4-2.4c-1-0.8-1.4-1.8-1.5-3.1c0-1,0.1-2.1-0.5-3
				c-0.6-0.9-1.1-1.9-1.5-2.9c-0.1-0.3,0.2-0.9,0.2-1.3c-0.1-0.9-0.3-1.7-0.4-2.6c-0.3-2-0.7-4.1-0.7-6.1C6.1,5.5,8,3,11.1,1.6
				c1.7-0.8,3.6-1.1,5.4-1.6c0.4,0,0.7,0,1.1,0c1.3,0.3,2.7,0.6,3.9,1c2.8,1,4.9,2.8,5.7,5.7c0.3,1,0.3,2.1,0.5,3.2
				c0,0.6,0,1.1,0,1.7c-0.1,0.5-0.1,1-0.2,1.5c-0.1,1.5-0.2,3.1-0.4,4.6c-0.1,0.5-0.2,1.1-0.3,1.6c-0.2,0.7-0.1,1.6-0.9,2.1
				c-0.2,0.1-0.3,0.3-0.3,0.5c-0.1,1.2,0,2.5-0.3,3.7c-0.2,0.7-0.7,1.5-1.3,2c-1.4,1.3-2.9,2.7-4.4,3.8C18.9,31.9,17.9,31.9,17.1,32
				z M13.8,30.2L13.8,30.2c0.3,0.2,0.6,0.5,0.9,0.7c0,0,0,0,0,0c-0.1-0.1-0.2-0.1-0.3-0.2c0,0,0,0,0,0c0.1,0.1,0.1,0.1,0.2,0.2
				c0,0,0,0,0,0c-0.1-0.1-0.2-0.1-0.3-0.2c0.2,0.2,0.3,0.3,0.4,0.4c-0.2-0.1-0.3-0.2-0.5-0.3c0,0,0,0.1-0.1,0.1
				c0.5,0.3,0.9,0.6,1.4,0.9c0.5,0,1,0.1,1.5,0c0.8,0,1.6-0.1,2.4-0.2c0,0,0-0.1,0-0.1c-0.5,0.1-1,0.2-1.4,0.3
				c2.3-0.8,4.2-2.1,5.7-4.1c-0.2,0.2-0.3,0.4-0.7,0.8c0.4-0.6,0.7-1.1,0.9-1.5c0,0.1,0,0.1,0,0.2c0.2-0.7,0.3-1.3,0.5-1.9
				c0,0,0,0,0,0c-0.1,0.3-0.2,0.6-0.3,1.1c0.1-0.6,0.2-1,0.2-1.4c0.1,0,0.1,0,0.2,0c0,0,0,0,0,0.1c0,0,0.1,0,0.1,0
				c0-0.3,0.1-0.6,0.1-0.9c0,0-0.1,0-0.1,0c-0.1,0.2-0.2,0.4-0.3,0.6c-0.1,0.1-0.1,0.2-0.2,0.3c0.1-0.2,0.2-0.4,0.2-0.5
				c-0.1,0-0.1,0-0.1,0.1c0.2-0.7,0.3-1.4,0.5-2c0,0,0.1,0,0.1,0c0,0.1-0.1,0.2-0.1,0.4c0,0,0,0,0.1,0c0-0.2,0.1-0.5,0.1-0.7
				c0,0,0,0,0,0c0,0.3-0.1,0.5-0.1,1.1c0.1-0.5,0.2-0.7,0.2-0.9c0,0,0,0,0,0c0,0.1,0,0.1,0,0.2c0,0,0,0-0.1,0c0-0.2,0.1-0.4,0.1-0.6
				c0,0,0,0-0.1,0c0,0.1,0,0.1-0.1,0.3c0-0.3,0-0.4,0-0.4c-0.1,0.4-0.3,1-0.5,1.5c0,0,0,0-0.1,0c0.2-0.9,0.5-1.7,0.7-2.6
				c0,0,0,0,0,0c0,0.1,0,0.2,0,0.2c-0.1-0.2-0.1-0.4-0.3-0.7c-0.5,2-0.6,4.1-2,5.4c0.1-0.6,0.3-1.4,0.5-2.3C23,23.8,23,23.8,22.9,24
				c0.2-0.4,0.3-0.7,0.4-1c0.1,0,0.1,0.1,0.2,0.1c-0.9,1.2-1.8,2.3-2.7,3.5c-0.1-0.1-0.2-0.1-0.2-0.2c0.1-0.1,0.2-0.2,0.3-0.3
				c-0.1,0-0.2,0-0.3,0.1c0.1-0.1,0.1-0.1,0.1-0.1c0-0.1,0-0.2,0-0.2c-0.2,0.3-0.3,0.6-0.5,0.9c-0.1-0.1-0.1-0.1-0.1-0.2
				c0,0,0-0.1,0-0.1c0,0-0.1,0-0.1,0c0,0,0.1-0.1,0,0c-0.5,1-0.9,0.3-1.4-0.2c0,0.1-0.1,0.3-0.1,0.3c-0.1,0.1-0.1,0.1-0.2,0.2
				c0,0,0,0-0.1-0.1c0,0.1,0,0.1-0.1,0.2c-0.1-0.3-0.1-0.4-0.1-0.6c0,0.1,0,0.2,0,0.2c-0.2,0.1-0.4,0.2-0.6,0.3c0,0-0.1-0.1-0.2-0.2
				c0,0.1-0.1,0.2-0.1,0.4c0-0.2,0-0.3,0.1-0.5c-0.6,0.6-0.9,0.5-1-0.3c0,0.3,0,0.6,0,0.9c0,0,0,0,0,0c0-0.1,0-0.2,0-0.3
				c-0.3-0.1-0.5-0.1-0.7-0.2c0,0.1,0,0.2,0,0.5c0-0.2,0-0.2,0-0.3c0,0,0,0,0,0c0,0.1,0,0.2,0,0.4c0-0.2,0-0.3,0-0.1
				c-0.6-0.3-1-0.6-1.4-0.8c0,0,0,0,0,0.1c-0.2-0.1-0.5-0.2-0.7-0.3c0,0.2,0.1,0.3,0.1,0.4c0,0-0.1,0-0.1,0
				c-0.1-0.2-0.3-0.4-0.4-0.6l0,0c-0.2-0.2-0.5-0.4-0.8-0.7c0.4,0.5,0.8,0.9,1.1,1.3c0,0-0.1-0.1-0.2-0.1c0.3,0.4,0.5,0.7,0.8,1.3
				c-0.3-0.4-0.5-0.6-0.7-0.8c-0.1-0.3-0.3-0.5-0.4-0.8c0.1,0.1,0.2,0.2,0.2,0.2c-0.4-0.6-0.8-1.3-1.3-2c0,0,0.1,0,0.1-0.1
				c0,0.1,0.1,0.1,0.1,0.2c0,0,0,0,0,0c-0.3-0.7-0.6-1.4-0.9-2.1c0,0,0,0-0.1,0c0.3,0.7,0.6,1.4,0.9,2.2c0,0,0,0.1,0,0.1
				c0.1,0.4,0.2,0.7,0.3,1.1c0,0,0,0,0,0c0.2,0.4,0.4,0.7,0.5,1.1c0,0,0.1,0,0.1-0.1c-0.1-0.2-0.3-0.4-0.5-0.7
				c0.2,0.2,0.3,0.3,0.4,0.4c0.2,0.2,0.3,0.5,0.5,0.7c0.1,0.1,0.1,0.3,0.3,0.4c-0.1-0.1-0.1-0.1-0.2-0.2c0.1,0.1,0.1,0.2,0.1,0.2
				c0,0,0,0,0,0c-0.2-0.2-0.4-0.5-0.6-0.7c-0.1-0.1-0.2-0.2-0.3-0.3c0,0.1,0.1,0.2,0.1,0.3c0.1,0.2,0.3,0.4,0.4,0.6
				c0.2,0.2,0.3,0.4,0.6,0.7c-0.2-0.2-0.3-0.3-0.5-0.4c0.2,0.2,0.3,0.3,0.4,0.5c-0.1-0.1-0.2-0.2-0.3-0.2c0,0-0.1,0.1-0.1,0.1
				c0.3,0.2,0.5,0.4,0.8,0.6c0,0,0,0-0.1,0.1c-0.1-0.1-0.2-0.1-0.3-0.2c0.4,0.4,0.8,0.8,1.2,1.2c0,0,0,0-0.1,0.1
				c0.1,0.1,0.2,0.3,0.3,0.4C14,30.1,13.8,30,13.6,30c0,0,0,0,0,0c0,0,0,0,0-0.1c-0.2-0.1-0.4-0.3-0.6-0.4c0,0,0,0,0,0
				c0.2,0.1,0.4,0.3,0.6,0.4c0,0,0,0,0,0c0,0,0,0,0,0.1c0,0,0,0,0.1,0C13.7,30.1,13.7,30.1,13.8,30.2C13.8,30.2,13.8,30.2,13.8,30.2
				C13.8,30.2,13.8,30.2,13.8,30.2z M8.7,12.3L8.7,12.3c0,0.1-0.1,0.2-0.1,0.3c0,0,0,0.1,0,0.1c0,0,0,0,0.1,0c0,0,0.1,0,0.1,0.1
				c-0.1,0.3-0.2,0.5-0.4,1.1c0.2-0.3,0.2-0.3,0.2-0.4c0,0.1,0,0.1,0,0.3c0.1-0.1,0.1-0.2,0.1-0.2c-0.1,0-0.1,0-0.2,0
				C8.6,14.8,8.8,16,9,17.2c0.1,0,0.1,0,0.2,0C9,17,8.9,16.8,8.7,16.6c0,0-0.1,0.1-0.1,0.1c0.4,0.3,0.7,0.7,1,0.9c0,0-0.1,0-0.3,0
				c0.2,0.2,0.3,0.3,0.5,0.4c0,0,0,0,0,0c-0.3-0.2-0.5-0.4-0.8-0.6c0.1,0.1,0.3,0.4,0.4,0.6c0,0,0,0-0.1,0.1
				c-0.2-0.2-0.4-0.5-0.6-0.7c0,0-0.1,0-0.1,0.1C9,18,9.3,18.5,9.7,19c-0.3-0.3-0.6-0.7-1-1.1c0,0,0,0-0.1,0
				c0.4,0.4,0.7,0.8,1.1,1.2c-0.2-0.2-0.5-0.4-0.7-0.6c0,0,0,0,0,0c0.2,0.2,0.4,0.4,0.6,0.6c0,0,0,0,0,0C9.4,19,9.2,18.8,9,18.5
				c0.1,0.3,0.3,0.5,0.5,0.7c0,0,0.1,0,0.2,0c0,0,0-0.1,0.1-0.1c1-0.6,2-1.2,3-1.8c-0.3-0.1-0.4-0.1-0.5,0c-1.8,0.6-3,0.1-3.2-1.3
				c-0.2-1-0.6-2,0.1-3c0.8-1,1.9-1.2,3.1-1.3c0.1,0,0.2,0.1,0.3,0.1c0.2,0.1,0.5,0.3,0.7,0.3c0.7,0,1.4,0,2.1,0c0,0,0,0,0,0
				c-0.7,0-1.3,0-2.1,0c0.1,0.1,0.2,0.1,0.3,0.1l0,0c0.1,0,0.3,0.1,0.4,0.1c1.3,0,2.6,0,3.9,0c0,0,0,0,0,0c-1.3,0-2.6,0-3.8,0
				c0,0,0,0,0,0.1c1.3,0,2.6,0,3.8,0c0,0-0.2,0.1-0.4,0.2c0,0,0,0.1,0,0.1c0.2-0.1,0.5-0.2,0.7-0.3c0,0,0,0,0,0
				c-0.1,0.1-0.2,0.1-0.4,0.2c0,0,0,0,0,0c0.2-0.1,0.4-0.2,0.6-0.2c0,0,0,0,0,0c-0.2,0.1-0.3,0.1-0.5,0.2c0,0,0,0,0,0
				c0.1,0,0.3-0.1,0.6-0.2c-0.3,0.1-0.4,0.2-0.6,0.3c0.3,0,0.5-0.1,0.6-0.1c-0.1,0.1-0.2,0.2-0.5,0.4c0.3-0.1,0.5-0.2,0.7-0.2
				c-0.2,0.1-0.3,0.2-0.3,0.2c0,0,0,0,0,0c0.1-0.1,0.2-0.1,0.3-0.2c0,0,0,0,0,0c-0.1,0.1-0.2,0.1-0.3,0.2c0.1,0,0.2,0,0.2,0
				c0,0-0.1,0.1-0.1,0.1c0.1,0,0.1,0,0.2,0c-0.1,0-0.1,0.1-0.1,0.1c0,0,0.1,0-0.2,0c0.1,0.1,0,0-0.1,0c-0.1,0.3-0.2,0.5-0.3,0.8
				c0,0,0,0,0,0c0.1-0.3,0.2-0.5,0.3-0.8c-0.1,0-0.1,0-0.2,0.1c0-0.1,0-0.3,0-0.5c-0.1,0.2-0.2,0.4-0.2,0.6c0,0,0,0,0,0
				c0.1-0.2,0.1-0.4,0.2-0.6c0,0,0,0,0,0c-0.1,0.1-0.1,0.3-0.2,0.4c0,0,0,0,0,0c0-0.1,0.1-0.3,0.1-0.4c-0.2,0.6-0.2,1.1-0.1,1.7
				c0.3,1.1,0.6,2.3,0.9,3.4c0.1,0.5,0.3,1.1,0.1,1.6c-0.2,0.5-0.8,0.8-1.2,1.2c0-0.1-0.1-0.2-0.1-0.2c0,0.1-0.1,0.1-0.1,0.2
				c0,0-0.1-0.1-0.1-0.1c0,0.1,0,0.1-0.1,0.3c0-0.1,0-0.2,0-0.2c0,0,0,0,0,0c0,0.3-0.1,0.6-0.1,0.9c0,0,0,0,0,0c0-0.4,0-0.7,0-1.2
				c-0.1,0.2-0.1,0.2-0.1,0.3c0,0-0.1,0,0,0c0,0.3,0.1,0.7,0.1,1.1c0,0-0.1,0-0.1,0c0-0.2,0-0.4-0.1-0.8c0,0.4,0,0.5,0,0.7
				c0,0,0,0,0,0c0-0.2,0-0.5-0.1-1c0,0.5,0,0.6,0,1.1c0-0.5-0.1-0.7-0.1-1.1c0,0.5,0,0.6,0,0.8c0,0,0,0,0,0c0-0.2,0-0.4,0-0.6
				c0,0,0,0,0,0c0,0.3,0,0.5,0,0.8c0,0,0,0,0,0c0-0.3,0-0.5-0.1-1c0,0.6,0,0.9,0,1.2c0,0,0,0-0.1,0c0-0.4,0-0.8,0-1.1c0,0,0,0,0,0
				c0,0.4,0,0.8,0,1.2c0,0,0,0,0,0c0-0.3,0-0.6,0-0.9c0,0,0,0-0.1,0c0,0.3,0,0.7,0,1c0,0,0,0,0,0c0-0.4,0-0.8,0-1.2c0,0,0,0-0.1,0
				c0,0.6,0,1.2,0,1.8c0,0,0,0,0,0c0-0.5,0-1,0-1.5c0,0,0,0,0,0c0,0.6,0,1.2,0,1.9c0,0,0,0,0,0c0-0.8,0-1.6,0-2.3c0,0,0,0,0,0
				c0,0.2,0,0.5,0,0.7c0,0,0,0,0,0c0-0.2,0-0.5,0-0.7c0,0,0,0,0,0c0,0.6,0,1.1,0,1.7c0,0,0,0,0,0c0-0.6,0-1.2,0-1.9c0,0,0,0,0,0
				c0,0.5,0,1,0,1.6c0,0-0.1,0-0.1,0c0-0.6,0-1.3,0-1.9c0,0,0,0-0.1,0c0,0.5,0,1.1,0,1.6c0,0,0,0,0,0c0-0.3,0-0.6,0-1c0,0,0,0,0,0
				c0,0.4,0,0.7,0,1.1c0,0,0,0-0.1,0c0-0.4,0-0.9,0-1.3c0,0,0,0,0,0c0,0.4,0,0.8,0,1.2c0,0,0,0,0,0c-0.1-1.2-0.3-2.3-0.4-3.5
				c0,0.2,0.1,0.5,0.1,0.7c0,0,0.1,0,0.1,0c0-0.7-0.1-1.4-0.1-2.1c0,0,0,0-0.1,0c0,0.5,0.1,1,0.1,1.5c0,0,0,0,0,0
				c0-0.5-0.1-0.9-0.1-1.4c0,0,0,0-0.1,0c0.1,1,0.2,2,0.3,3.1l0,0c0,0.6,0,1.3,0,1.9c0,0,0,0,0,0c0-0.5,0-0.9,0-1.4c0,0,0,0,0,0
				c0,0.5,0,1,0,1.3c-0.1-1-0.2-2.1-0.2-3.3c0,0,0,0,0,0c0.1,1.3,0.2,2.5,0.3,3.8c0,0-0.1,0-0.1,0c0-0.1,0-0.2,0-0.6
				c0,0.4,0,0.5,0,0.7c0,0,0,0,0,0c0-0.6-0.1-1.3-0.1-2.1c0,0.3,0,0.5,0,0.6c0,0,0,0,0,0c0-0.1,0-0.3,0-0.4c0,0,0,0,0,0
				c0,0.2,0,0.4,0,0.7c0-0.4-0.1-0.7-0.1-1c0,0,0,0,0,0c0,0.4,0,0.8,0.1,1.1c0,0,0,0,0,0c0-0.4-0.1-0.8-0.1-1.2c0,0,0,0,0,0
				c0,0.3,0,0.6,0.1,0.9c0,0,0,0,0,0c0-0.4-0.1-0.8-0.1-1.2c0,0,0,0,0,0c0,0.4,0,0.7,0.1,1.1c0,0,0,0,0,0c0-0.4-0.1-0.9-0.1-1.3
				c0,0,0,0,0,0c0,0.4,0.1,0.8,0.1,1.2c0,0,0,0,0,0c-0.1-0.5-0.1-0.9-0.2-1.4c0,0,0,0,0,0c0.1,0.6,0.1,1.2,0.2,1.8c0,0,0,0-0.1,0
				c0-0.1,0-0.2,0-0.2c-0.1,0.7-0.2,1.5-0.2,2.1c0.2,0,0.4,0.1,0.6,0.2c0.1,0.1,0.1,0.3,0.2,0.5c-0.2-0.2-0.3-0.3-0.4-0.5
				c-0.1,0.2-0.2,0.4-0.3,0.5c0,0,0,0,0-0.3c-0.1,0.6-0.1,0.9-0.2,1.2c0,0,0,0,0,0c0-0.1,0-0.2,0.1-0.5c0,0.4,0,0.5,0,0.6
				c0,0,0.1,0,0.1-0.1c0,0.1,0,0.2,0,0.2c0.1,0,0.1,0,0.2,0.1c0.1-0.4,0.3-0.7,0.4-1c0-0.1,0-0.1,0,0c0-0.2,0.1-0.4,0.1-0.7
				c0,0.1,0,0.1-0.1-0.1c0.5,0.3,0.8,0.4,1.1,0.6c0,0,0-0.1,0.1-0.4c0.3,0.1,0.7,0.1,1.1,0.2c0,0.1,0,0.2-0.1,0.3c0,0,0.1,0,0.1,0
				c0,0.3,0,0.7,0,1c0-0.6,0.1-1.1,0.1-1.6c0,0,0,0,0.1,0c0,0.1,0,0.3,0,0.2c0.3-0.1,0.6-0.2,1-0.4c0,0.1,0,0,0,0c0.3,0,0.7,0,1,0
				c0-0.1,0-0.1,0.1-0.2c0.3,0.1,0.6,0.2,0.8,0.2c0,0.3,0.1,0.5,0.1,0.7c0,0,0-0.1,0.1-0.3c0,0.5,0,0.7,0,0.9c0,0.1,0.2,0.1,0.4,0.2
				c-0.1-0.2-0.1-0.1,0-0.1c0-0.1,0-0.2,0.1-0.4c0,0.2,0,0.3,0.1,0.4c0.1,0,0.1,0,0.2,0c-0.1-0.4-0.2-0.7-0.3-1.1c0,0,0,0-0.1,0
				c0,0.1,0,0.1,0,0.2c0,0,0,0,0,0c0-0.1,0-0.2-0.1-0.4c0,0,0,0-0.1,0.1c0-0.3,0-0.5,0-0.5c0.2,0.1,0.4,0.2,0.7,0.4
				c0-0.4-0.1-0.8-0.1-1.1c0,0,0,0.1-0.1,0.1c0-0.2,0-0.4,0-0.5c0,0,0,0,0,0c0,0.2,0,0.4,0,0.6c0,0-0.1,0-0.1,0c0-0.3,0.1-0.7,0.1-1
				c0,0.1,0,0.1-0.1,0.4c0.1-0.3,0.1-0.4,0.1-0.5c0,0,0,0,0,0c0,0.2-0.1,0.5-0.1,0.7c0,0,0,0,0,0c0.1-0.3,0.1-0.6,0.3-1.2
				c-0.1,0.5-0.2,0.7-0.2,0.8c0-0.1,0-0.3,0-0.4c-0.1,0.2-0.1,0.4-0.2,0.6c0.1-0.3,0.1-0.5,0.1-0.7c0,0,0,0,0,0
				c-0.1,0.2-0.1,0.5-0.2,0.7c0,0,0,0,0,0c0-0.2,0.1-0.5,0.1-0.7c0,0,0,0,0,0c-0.1,0.3-0.1,0.5-0.2,0.9c0-0.4,0.1-0.7,0.1-1.3
				c-0.1,0.3-0.1,0.3-0.2,0.4l0,0c-0.1,0.3-0.2,0.6-0.3,1.1c0.1-0.5,0.1-0.8,0.2-1.2c0,0.1-0.1,0.1-0.1,0.3c0-0.2,0.1-0.3,0.1-0.5
				c-0.1,0.3-0.1,0.4-0.2,0.6c0.1-1.1,1-1.6,1.7-2.2c0.4-0.1,0.7-0.2,1.1-0.4c0,0,0,0,0,0c-0.2,0.1-0.3,0.1-0.5,0.2c0,0,0,0,0,0
				c0.2-0.1,0.4-0.1,0.5-0.2c0,0,0,0,0,0c-0.2,0.1-0.3,0.1-0.5,0.2c0,0,0,0,0,0c0.2-0.1,0.4-0.1,0.6-0.2c0,0,0,0,0,0
				c-0.1,0-0.2,0.1-0.3,0.1c0,0,0,0,0,0c0.1,0,0.2,0,0.6-0.1c-0.4,0.1-0.6,0.2-0.7,0.2c0,0,0,0,0,0c0.2,0,0.4-0.1,0.8-0.2
				c-0.5,0.1-0.7,0.2-1,0.3c0,0,0,0,0,0c0.3-0.1,0.6-0.2,0.9-0.2c0,0,0,0,0,0c-0.3,0.1-0.6,0.2-0.9,0.3c0,0,0,0,0,0
				c0.3-0.1,0.7-0.2,1-0.2c0,0,0,0,0,0c-0.3,0.1-0.7,0.2-1,0.3c0,0,0,0,0,0c0.3-0.1,0.7-0.1,1-0.2c0,0,0,0,0,0
				c-0.4,0.1-0.7,0.2-1.1,0.3c0,0,0,0,0,0.1c0.2-0.1,0.4-0.1,0.7-0.3c-0.1,0.1-0.2,0.1-0.2,0.1c0.3,0,0.5-0.1,0.8-0.1c0,0,0,0,0,0.1
				c-0.2,0-0.4,0.1-0.6,0.1c0,0,0,0,0,0c0.3,0,0.5-0.1,0.8-0.1c0,0,0,0,0,0c-0.2,0-0.5,0.1-1,0.2c0.6-0.1,0.8-0.1,1.3-0.1
				c-0.6,0.1-1,0.2-1.5,0.3c0,0,0,0,0,0c0.4-0.1,0.9-0.1,1.3-0.2c0,0,0,0,0,0.1c-0.4,0.1-0.7,0.1-1.1,0.2c0,0,0,0,0,0
				c0.4,0,0.8-0.1,1.2-0.1c0,0,0,0,0,0c-0.4,0.1-0.8,0.1-1.3,0.2c0,0,0,0,0,0c0.4-0.1,0.9-0.1,1.3-0.2c0,0,0,0,0,0.1
				c-0.3,0-0.6,0-0.9,0.1c0,0,0,0,0,0c0.3,0,0.6,0,0.8,0c0,0,0,0,0,0c-0.2,0-0.5,0-0.7,0c0,0,0,0,0,0c0.3,0,0.6,0,1.1,0
				c-0.6,0-0.9,0.1-1.3,0.1c0,0,0,0,0,0c0.4,0,0.7,0,1.3-0.1c-0.7,0.1-1.1,0.1-1.6,0.2c0.5,0,1-0.1,1.5-0.2c0,0,0.1,0.1,0.2,0.1
				c0,0,0.1,0,0.1-0.1c0-0.1,0-0.2,0-0.3c0.1,0,0.2-0.1,0.3-0.2c-0.2-0.2-0.3-0.4-0.6-0.6c0.1,0,0,0,0,0c0-0.1,0-0.1,0,0
				c-0.3-0.2-0.4-0.3-0.4-0.3c-0.4-0.1-0.6-0.2-1.1-0.3c0.4,0,0.5,0,0.4,0c-0.4-0.2-1-0.5-1.6-0.8c0.1,0,0.1,0,0.2,0
				c-0.1-0.1-0.3-0.2-0.5-0.3c0.2,0.1,0.2,0.2,0.3,0.2c-0.1,0.1-0.1,0.1-0.2,0.2c-0.2-0.2-0.3-0.5-0.5-0.7c-0.1-0.1-0.2-0.3-0.2-0.4
				c0.6,0.4,1.2,0.9,1.9,1.3c0,0,0.1,0,0.2,0c0.2,0.1,0.4,0.1,0.6,0.2c0,0,0,0.2,0,0.3c0.1,0,0.3,0,0.7,0c-0.2,0.1-0.3,0.1-0.3,0.1
				c0.2,0.1,0.4,0.2,0.6,0.2c0.2,0.2,0.4,0.3,0.5,0.4c0,0-0.1,0.1-0.1,0.1c0.1,0,0.2,0,0.4,0.1c0,0,0,0.1,0,0.2
				c0.1,0.1,0.3,0.1,0.6,0.2c-0.2-0.1-0.3-0.2-0.6-0.3c0.3,0.1,0.3,0.1,0.5,0.2c0,0-0.1-0.1-0.1-0.1c0.1,0,0.1,0,0.2,0
				c-0.1-0.1-0.2-0.1-0.4-0.2c0.3,0.1,0.3,0.1,0.6,0.2c-0.2-0.1-0.3-0.2-0.4-0.2c0,0,0,0,0,0c0.1,0.1,0.3,0.1,0.7,0.4
				c-0.4-0.3-0.5-0.3-0.8-0.5c0.3,0.1,0.4,0.2,0.7,0.3C26,19,26,19,25.9,18.9c0,0,0,0,0,0c0.1,0.1,0.2,0.1,0.3,0.2c0,0,0,0,0,0
				c-0.1-0.1-0.2-0.1-0.2-0.2c0,0,0,0,0,0c0.1,0.1,0.2,0.1,0.3,0.2c0,0,0,0,0,0c-0.1-0.1-0.1-0.1-0.2-0.2c0,0,0,0,0,0
				c0.1,0.1,0.2,0.1,0.3,0.2c0,0,0,0,0,0c-0.1-0.1-0.2-0.1-0.2-0.2c0,0,0,0,0,0c0.1,0.1,0.2,0.1,0.4,0.2c-0.2-0.2-0.3-0.2-0.4-0.3
				c0.1,0.1,0.2,0.1,0.2,0.1c0-0.1-0.1-0.1-0.1-0.2c0.1,0.1,0.2,0.1,0.3,0.2c-0.1-0.1-0.2-0.2-0.3-0.3c0.1,0.1,0.2,0.1,0.3,0.2
				c-0.1-0.1-0.1-0.1-0.2-0.2c0.1,0.1,0.2,0.1,0.4,0.2c-0.2-0.1-0.2-0.2-0.4-0.3c0.2,0.1,0.3,0.1,0.4,0.2c-0.1-0.1-0.2-0.2-0.4-0.3
				c0.2,0.1,0.2,0.1,0.4,0.2c-0.1-0.1-0.2-0.2-0.3-0.3c0.1,0.1,0.2,0.1,0.3,0.2c-0.1-0.1-0.2-0.1-0.3-0.3c0.1,0.1,0.2,0.1,0.3,0.2
				c-0.1-0.1-0.2-0.2-0.3-0.3c0.1,0.1,0.2,0.1,0.3,0.2c-0.2-0.2-0.3-0.2-0.4-0.4c0.1,0,0.1,0,0.2,0.1c0-0.1-0.1-0.1-0.2-0.2
				c0.1,0.1,0.2,0.1,0.2,0.1c0,0,0,0,0,0c-0.1-0.1-0.2-0.1-0.4-0.2c0.1,0,0.1,0-0.1,0c-0.1-0.7-0.1-1.4-0.2-2.1c0.1,0,0.1,0,0.2,0
				c0,0.4-0.1,0.7-0.1,1.1c0,0,0,0,0,0c0.1-0.5,0.1-1,0.2-1.5c0,0.1-0.1,0.2,0,0c-0.1-0.4-0.3-1-0.5-1.6c-0.2,0.1-0.3,0.1-0.5,0.2
				c0,0,0,0-0.1,0.1c-0.1,0.5-0.1,1.1-0.2,1.7c-0.2,1.1-1.4,1.9-2.5,1.7c-0.5-0.1-1-0.3-1.6-0.5c-0.1,0-0.1,0-0.2-0.1
				c-0.5-0.2-1.1-0.4-1.4-0.5c0.3,0.3,0.8,0.8,1.3,1.4c-0.1,0-0.1,0-0.2,0c-0.7-0.9-1.7-1.6-1.7-2.9c0-0.3-0.2-0.5-0.2-0.7
				c0.1-0.1,0.1-0.1,0.1,0c0,0,0,0.1,0.1,0.1c0,0,0,0.1,0,0.1c0.1,0,0.1,0.1,0.2,0.1c0.1-0.4,0.2-0.7,0.3-1.1c0,0,0-0.1,0-0.1
				c0.2-0.2,0.3-0.3,0.5-0.6c-0.2,0.1-0.3,0.1-0.4,0.2c0.9-0.4,1.7-0.9,2.6-1c0.6-0.1,1.4,0.2,2,0.6c0.6,0.4,1,1,1.5,1.5
				c0,0,0,0,0.1,0c0,0,0.1-0.1,0.1-0.2c-0.7-1.5-0.1-2.9,0.2-4.4c0,0,0,0,0,0c0-0.3,0.1-0.5,0.1-0.9c0,0.4,0,0.7,0,1.1
				c0.1-0.8,0.2-1.6,0.3-2.4c-0.4-0.8-0.9-1.5-1.3-2.3c-0.5-0.7-1.1-1.4-1.6-2.1c-0.1,0.1-0.2,0.2-0.3,0.3c0.1,0.1,0.3,0.1,0.4,0.2
				c0,0,0,0,0,0c-0.3-0.2-0.6-0.3-0.9-0.5c0,0,0.1-0.1,0.1-0.1c0.9,0.7,1.8,1.4,2.6,2.1c0,0,0.1-0.1,0.1-0.1c-1.3-0.9-2.7-1.8-4-2.6
				c0,0-0.1,0.1-0.1,0.1c0.1,0,0.2,0.1,0.4,0.1c-2.7-1.3-5.4-1.4-8-0.5c0.8-0.2,1.7-0.4,2.5-0.5c-1.3,0.3-2.7,0.7-4.2,1.1
				c0,0,0,0,0,0.1c1.3-0.3,2.6-0.7,3.9-1c0,0,0,0,0,0C14.4,1.1,13,1.5,11.5,2c0,0,0,0,0,0.1c1.3-0.4,2.7-0.8,4-1.2c0,0,0,0,0,0
				c-1.4,0.4-2.9,0.9-4.3,1.3c0,0,0,0,0,0.1c1.3-0.4,2.5-0.8,3.8-1.2c0,0,0,0,0,0c-1.3,0.4-2.6,0.8-3.9,1.2c0,0,0,0.1,0,0.1
				c0.8-0.3,1.7-0.6,2.5-0.9c0,0,0,0,0,0.1c-0.5,0.2-1,0.3-1.5,0.5C12.7,2,13,1.9,13.4,1.8c0.4-0.1,0.8-0.2,1.2-0.3c0,0,0,0,0-0.1
				c-1.3,0.5-2.7,1-4,1.5c0,0,0,0.1,0,0.1c0.9-0.4,1.9-0.8,2.8-1.2c0,0,0,0,0,0.1c-0.9,0.3-1.7,0.7-2.6,1c0,0,0,0,0,0
				c0.8-0.3,1.7-0.7,2.5-1c0,0,0,0,0,0c-1,0.4-1.9,0.8-2.9,1.2c0,0,0,0,0,0c1.1-0.4,2.1-0.8,3.2-1.3c0,0,0,0,0,0.1
				c-0.9,0.3-1.8,0.6-2.7,1c0,0,0,0.1,0,0.1c0.4-0.2,0.7-0.3,1.1-0.5c0,0,0,0-0.1-0.1c-1,0.7-2,1.4-3.1,2.1c0,0,0,0,0,0.1
				C10,4,10.9,3.4,11.7,2.8c-0.3,0.3-0.8,0.6-1.2,0.8c-0.4,0.3-0.7,0.6-1.1,0.9c0,0,0-0.1,0-0.1c1.2-0.7,2.3-1.3,3.4-1.9
				C11.6,3.2,10.4,4,9.1,4.8c0,0,0,0,0,0.1c1.2-0.7,2.3-1.5,3.5-2.2c0,0,0,0.1,0.1,0.1c-1,0.6-2,1.2-3,1.8c0,0,0,0,0,0
				c1-0.6,2-1.1,2.9-1.7c-1.8,0.8-3.2,1.9-4.1,3.6c1-1.6,2.4-2.7,4.2-3.3C11.1,3.6,9.9,4.5,9,5.7C8.7,6.2,8.4,6.6,8.2,7c0,0,0,0,0,0
				C8.6,6.5,9,6,9.4,5.4l0,0c0,0.1,0,0.1-0.1,0.2C9.1,6,8.8,6.3,8.6,6.6c0,0-0.1-0.1-0.1-0.1c1.1-1,2.3-2,3.4-3c0,0,0.1,0.1,0.1,0.1
				C11.1,4.3,10.2,5,9.3,5.6c0,0,0,0,0,0c0.8-0.6,1.6-1.2,2.1-1.6c-0.6,0.5-1.4,1.2-2.2,1.9C9.2,6.1,9,6.4,8.9,6.6c0,0,0,0,0.1,0
				C9,6.5,9.1,6.4,9.1,6.4c0.7-0.7,1.4-1.3,2.1-2c0,0,0,0,0,0c-0.9,0.9-1.8,1.8-2.7,2.8c0,0,0,0,0.1,0.1c0.8-0.8,1.6-1.7,2.3-2.5
				c0,0-0.1,0-0.1,0C9.9,6,8.9,7.3,7.9,8.5C8,8.6,8.1,8.7,8.1,8.7c1-2,2.3-3.7,2.8-3.8c-0.7,0.8-1.7,1.9-2.6,2.9c0,0,0,0,0.1,0
				C9.3,6.9,10.1,6,10.9,5c0,0,0.1,0.1,0.1,0.1c-0.5,0.5-1.1,1-1.6,1.5c0,0,0.1,0.1,0.1,0.1c0.4-0.5,0.8-0.9,1.2-1.4
				c0,0-0.1,0-0.1,0C9.9,6.5,9.1,7.7,8.4,8.8c0,0.1,0,0.1-0.1,0.2c0,0.1,0,0.1,0,0c0.3-0.5,0.6-1.2,1-1.7c0.4-0.6,0.9-1.1,1.4-1.6
				c0,0,0,0,0,0C9.9,6.8,9.1,7.9,8.3,9C8.7,8.7,8.8,8.4,9,8.1c0.2-0.3,0.4-0.6,0.6-0.9c0.2-0.3,0.5-0.5,0.7-0.8c0,0,0,0-0.1,0
				C9.6,7.4,8.9,8.5,8.2,9.6c0,0,0,0,0,0c0.7-1,1.4-2.1,2-3.1c0,0,0.1,0,0.1,0.1C9.7,7.4,9.1,8.3,8.6,9.1c0,0,0,0,0,0
				c0.6-0.8,1.2-1.6,1.8-2.4c0,0,0,0,0,0C9.8,7.5,9.2,8.3,8.7,9.1c0,0,0,0,0,0c0.5-0.7,1-1.4,1.4-2c0,0,0,0,0,0
				c-0.3,0.5-0.7,1-1,1.4C9,9,8.7,9.4,8.5,9.8c0,0,0.1,0,0.1,0c0.1-0.2,0.2-0.4,0.3-0.6c0.3-0.4,0.6-0.8,0.9-1.2c0,0,0,0,0,0
				c-0.3,0.5-0.6,1-0.9,1.5c-0.1,0.2-0.2,0.5-0.3,0.7c0,0,0,0,0.1,0c0.1-0.2,0.3-0.5,0.4-0.7C9.4,9,9.8,8.4,10.2,7.9
				c0,0,0,0,0.1,0.1c-0.3,0.4-0.6,0.8-1,1.2c0,0,0,0,0,0c0.3-0.4,0.7-0.7,1-1c-0.5,0.6-1,1.3-1.5,1.9c0,0,0,0,0,0
				c0.4-0.6,0.9-1.1,1.3-1.7c0,0,0,0,0,0C9.8,8.9,9.4,9.4,9,9.9c0,0,0,0,0.1,0c0.2-0.2,0.3-0.5,0.4-0.6C9.3,9.8,9,10.3,8.8,10.8
				c0,0.1-0.1,0.2-0.1,0.2c0,0.1,0,0.2,0,0.3c0.2-0.4,0.4-0.7,0.7-1.1C9.6,10,9.8,9.7,9.9,9.6c-0.3,0.4-0.6,0.9-0.9,1.3
				c-0.1,0.3-0.2,0.5-0.3,0.8c0,0,0,0.1,0.1,0.1c-0.1,0.1-0.1,0.2-0.2,0.4C8.7,12.2,8.7,12.2,8.7,12.3C8.7,12.2,8.7,12.3,8.7,12.3z
				 M13.7,22.9c0-0.5,0-1,0-1.4c0,0,0,0,0,0c0,0.7-0.1,1.3-0.1,1.9c0-0.1,0.1-0.2,0.1-0.3c0,0.1,0,0.2-0.1,0.4c0,0,0.1,0,0.1,0
				c0-0.7,0.1-1.3,0.1-2c0,0,0,0,0,0C13.8,22,13.7,22.4,13.7,22.9z M15.6,0.6c0.1,0,0.2-0.1,0.3-0.1c0.5,0,1-0.1,1.5-0.1
				c0.5,0,1,0.1,1.5,0.1c-1.3-0.1-2.5,0-3.8,0.1c-0.7,0.1-1.3,0.4-2,0.6c-0.1,0.1-0.2,0.1-0.4,0.2c2.2-0.8,4.4-1.3,6.2-0.8
				C18.1,0.6,16.8,0.6,15.6,0.6z M11.5,20.3c0,0,0-0.1,0-0.1c-0.4-0.3-0.9-0.6-1.3-0.9c0,0,0,0,0,0c0.4,0.2,0.7,0.5,1.1,0.7
				c0,0,0,0,0,0c-0.3-0.2-0.6-0.4-0.9-0.6c0,0,0,0,0,0c0.3,0.2,0.5,0.3,0.8,0.5c0,0,0,0,0,0c-0.1-0.1-0.3-0.2-0.4-0.3c0,0,0,0,0,0
				c0.4,0.3,0.8,0.5,1.2,0.8c0,0,0,0,0,0c-0.4-0.3-0.8-0.6-1.3-0.9c0,0,0.1-0.1,0.1-0.1c0.7,0.6,1.4,1.2,2.1,1.8c0,0,0,0,0,0
				c-0.6-0.6-1.3-1.2-1.9-1.8c0.5,0.4,1,0.8,1.5,1.2c0,0,0,0,0,0c-0.6-0.5-1.1-0.9-1.7-1.4c0,0,0,0,0-0.1c0.6,0.6,1.3,1.1,1.9,1.7
				c0,0,0,0,0,0c-0.6-0.5-1.2-1.1-2-1.8c0.7,0.5,1.1,0.9,1.6,1.3c0,0,0,0,0,0c-0.4-0.3-0.8-0.7-1.3-1.1c0.3,0.1,0.5,0.3,0.7,0.4
				c0,0,0,0,0-0.1c-0.1-0.1-0.3-0.2-0.4-0.3c0,0,0,0,0,0c0.1,0.1,0.3,0.2,0.4,0.3c0,0,0,0,0,0c-0.1-0.1-0.2-0.2-0.3-0.3c0,0,0,0,0,0
				c0.1,0.1,0.1,0.1,0.4,0.3c-0.2-0.2-0.3-0.3-0.4-0.3c0,0,0,0,0,0c0.1,0.1,0.2,0.2,0.5,0.4c-0.2-0.2-0.3-0.3-0.4-0.4c0,0,0,0,0,0
				c0.1,0.1,0.2,0.2,0.4,0.3c0,0,0,0,0-0.1c-0.1-0.1-0.2-0.1-0.5-0.4c0.3,0.2,0.5,0.3,0.7,0.5c-0.2-0.2-0.3-0.2-0.3-0.3c0,0,0,0,0,0
				c0.1,0.1,0.2,0.2,0.1,0.1c0-0.1-0.1-0.3-0.2-0.6c0.3,0,0.5,0.1,0.8,0.1c0,0.1,0,0.1,0,0.2c-0.1,0-0.1,0-0.1,0
				c0.1,0.1,0.3,0.3,0.5,0.5c0,0,0,0,0,0c-0.1-0.1-0.2-0.2-0.3-0.4c0.1,0.1,0.2,0.1,0.3,0.2c0,0,0-0.1,0-0.1c0,0,0.1,0,0.1,0.1
				c0-0.1-0.1-0.2-0.2-0.5c0.2,0.3,0.2,0.4,0.3,0.5c0-0.2-0.1-0.4-0.1-0.7c0.1,0.1,0.1,0.2,0.2,0.3c0-0.1,0-0.2-0.1-0.4
				c0.1,0.1,0.1,0.2,0.3,0.5c0-0.3,0-0.4,0-0.6c0.1,0.3,0.2,0.5,0.3,0.7c0-0.2-0.1-0.5-0.1-0.9c0,0,0.1,0,0.1,0c0,0,0,0.1,0.1,0.3
				c0-0.2,0-0.3-0.1-0.5c0.1,0.2,0.1,0.3,0.1,0.4c0-0.1,0-0.2,0-0.3c0,0.1,0,0.1,0.1,0.1c0-0.1,0-0.2,0-0.3c0,0,0,0,0,0
				c0,0.2,0,0.4,0,0.5c0.1-0.2,0.2-0.5,0.3-1c0,0.5,0,0.8,0,1.2c0,0,0,0,0.1,0c0-0.6,0-1.2,0-1.8c-0.5,0.3-1,0.7-1.4,1c0,0,0,0,0,0
				c0.5-0.4,1-0.8,1.5-1.3c-0.6,0.3-1.2,0.6-1.7,1c-0.8,0.6-1.6,1.2-2.4,1.8c-0.2,0.1-0.3,0.3-0.5,0.5c-0.1,0-0.2,0-0.3,0.1
				c0,0,0,0.1,0,0.1c-0.1,0-0.1,0-0.2,0c0,0-0.1,0.1-0.1,0.1c0.4,0.3,0.8,0.5,1.2,0.8c0,0,0,0,0,0c-0.4-0.2-0.7-0.5-1.1-0.7
				c0,0,0,0,0,0c0.4,0.2,0.7,0.4,1.1,0.7c0,0,0,0,0,0c-0.3-0.2-0.6-0.4-0.8-0.5c0,0,0,0,0-0.1c0.6,0.4,1.2,0.8,1.8,1.1c0,0,0,0,0,0
				c-0.6-0.4-1.3-0.8-1.9-1.3c0,0,0,0,0,0c0.4,0.3,0.8,0.5,1.3,0.8c0,0,0,0,0,0c-0.4-0.3-0.7-0.5-1.1-0.8c0,0,0,0,0,0
				c0.6,0.4,1.1,0.7,1.8,1.2C11.7,20.4,11.6,20.3,11.5,20.3z M16.2,14.6c0,0.5-0.1,1-0.1,1.3c0-0.1,0-0.2-0.1-0.3c0,0,0,0,0,0.1
				c0,0,0-0.1,0-0.1c0,0-0.1,0-0.1,0c0,0.4-0.1,0.9-0.1,1.3c0-0.2,0-0.5-0.1-1c0,0.6,0,1.1,0,1.6c0.2-0.5,0.3-0.9,0.4-1.2
				c0,0,0,0,0.1,0.2c-0.1-0.2-0.1-0.3-0.1-0.3c0.2-0.2,0.4-0.3,0.7-0.6c-0.1-0.8-0.2-1.9-0.3-3.1c-0.1,0.2-0.1,0.4-0.1,0.5
				c0,0,0-0.1,0-0.2c0,0.1,0,0.1,0,0.2c0,0,0,0,0-0.1c0,0.2,0,0.5-0.1,0.8c-0.1-0.1-0.1-0.2-0.1-0.1c0,0.6,0,1.2,0,1.7
				c0-0.1,0-0.3,0-0.6c0,0,0,0,0,0c0,0.3,0,0.7,0,1c0,0,0,0,0,0C16.2,15.2,16.2,14.9,16.2,14.6z M17.5,23.8c-0.1,0-0.1,0-0.2,0
				c0.1,0.5,0.1,1,0.3,1.4c0,0.1,0.9-0.1,0.9-0.2c0-0.6-0.1-1.1-0.2-1.7c-0.1,0-0.1,0-0.2,0c0,0,0,0.1,0,0.1c-0.1,0-0.2,0-0.3,0
				c0,0,0,0,0,0c-0.1,0.1-0.1,0.1-0.1,0.1c0,0,0,0,0-0.1c0,0.1,0,0.2-0.1,0.4c0-0.1,0-0.1,0-0.2c0,0.3-0.1,0.5-0.1,0.7c0,0,0,0,0,0
				C17.5,24.2,17.5,24,17.5,23.8z M17.4,12.6c-0.1,0.1-0.1,0.2-0.1,0.3c0-0.1,0-0.1,0-0.2c0,0.1-0.1,0.1-0.2,0.3
				c0-0.2,0.1-0.2,0.1-0.4c-0.1,0.2-0.1,0.3-0.3,0.6c0.1-0.3,0.1-0.4,0.2-0.5C17,12.7,17,12.7,17,12.8c0-0.1,0-0.1,0-0.1
				c-0.1,0-0.1,0-0.2,0c0,0-0.1,0,0,0c0.1,1,0.2,2,0.2,2.8c0.3,0.2,0.5,0.4,0.7,0.6c-0.1-1.1-0.2-2.2-0.3-3.1c0-0.1,0,0,0,0.1
				c0,0,0,0,0,0C17.4,12.9,17.4,12.9,17.4,12.6c0,0.2,0,0.3-0.1,0.4C17.3,12.9,17.4,12.8,17.4,12.6z M17,23.9
				c-0.2-0.1-0.4-0.2-0.8-0.4c0,0.7,0,1.2,0,1.7c0,0,0.6,0,0.9,0c0-0.5,0-0.9,0-1.4C17,23.8,17,23.8,17,23.9C17,23.9,17,24,17,23.9z
				 M26.2,11.8C26.3,11.8,26.3,11.8,26.2,11.8c0-1,0-2,0-2.8c0,0,0,0.1,0,0.1c0-0.3,0-0.6,0-1c0-0.1,0-0.3,0-0.4
				c0-0.2,0-0.3,0.1-0.6c-0.1,1-0.3,1.8-0.4,2.6c0,0-0.1,0-0.1,0c0,0,0-0.1,0-0.1c-0.1,0.2-0.1,0.4-0.2,0.6c0,0,0,0,0,0
				c0-0.1,0.1-0.2,0.1-0.2c0,0.7,0,1.6,0,2.4c0,0,0,0,0,0c0-0.4,0-0.7,0-1.1c0,0,0,0,0,0c0,0.3,0,0.7,0,1c0,0,0,0,0,0
				c0-0.4,0-0.8,0-1.4c0,0.5,0,0.9,0.1,1.2c0,0,0,0,0.1,0c0-0.4,0-0.7-0.1-1.1c0,0,0,0,0.1,0c0,0.3,0,0.6,0,0.9c0,0,0,0,0.1,0
				c0-0.4,0-0.7-0.1-1.1c0,0,0,0,0.1,0c0,0.4,0,0.7,0.1,1.1c0,0,0,0,0,0c0-0.5-0.1-1-0.1-1.5c0,0,0,0,0.1,0
				C26.2,10.9,26.2,11.4,26.2,11.8z M19.4,24C19.4,24,19.4,24,19.4,24c-0.1-0.2-0.1-0.3-0.1-0.5c0-0.1,0-0.2-0.1-0.2
				c-0.1,0.1-0.3,0.1-0.3,0.2c-0.1,0.4-0.1,0.8-0.1,1.2c0,0.2,0.1,0.3,0.1,0.5c0.2,0,0.5,0,0.7-0.2c0.1-0.1,0.1-0.3,0.1-0.5
				c0-0.3-0.2-0.5-0.3-0.9C19.3,23.8,19.4,23.9,19.4,24z M22.5,23.4c0.3-0.5,0.6-1,0.9-1.4c0.1-0.2,0.2-0.4,0.2-0.7
				c-0.1,0-0.3,0.1-0.4,0.1C22.6,21.8,22.2,22.7,22.5,23.4z M19.8,26.4C19.8,26.4,19.8,26.4,19.8,26.4c0-0.4-0.1-0.9-0.2-1.3
				c-0.2,0-0.6,0-0.6,0.1c-0.1,0.3-0.1,0.7-0.1,1c0,0,0,0,0.1,0c0-0.1,0-0.2,0-0.5c0,0.4,0,0.5,0.1,0.6c0-0.1,0-0.1,0,0
				c0.2,0.1,0.3,0.2,0.5,0.3c0-0.2,0-0.3,0-0.4c0,0,0,0,0,0c0,0.1,0,0.1,0,0.2c0,0,0,0,0,0c0-0.1,0-0.3,0-0.4c0,0,0,0,0,0
				C19.7,26.2,19.7,26.3,19.8,26.4C19.7,26.5,19.7,26.5,19.8,26.4c-0.1-0.2-0.1-0.5-0.1-0.7c0,0,0,0,0,0
				C19.7,25.9,19.7,26.2,19.8,26.4z M19.7,23.2C19.7,23.2,19.6,23.2,19.7,23.2c-0.1,0.1-0.1,0.3-0.1,0.4c0-0.1,0-0.2,0-0.4
				c0,0.4,0.1,0.9,0.2,1.3c0,0.1,0.2,0.3,0.3,0.3c0,0,0.2-0.1,0.3-0.1c0.1-0.1,0.1-0.3,0.1-0.4c-0.1-0.3-0.1-0.7-0.2-1
				C20,23.3,19.9,23.2,19.7,23.2C19.7,23.1,19.7,23.2,19.7,23.2z M14.9,24.9c0.2,0,0.5,0.1,0.8,0.1c0-0.4-0.1-0.9-0.1-1.3
				c0,0-0.2,0-0.4-0.1C15,24,14.9,24.5,14.9,24.9C14.8,24.8,14.8,24.7,14.9,24.9z M14.6,26.3c0.1,0.1,0.3,0.2,0.4,0.3
				c0.1-0.4,0.3-0.9,0.4-1.4c-0.4,0-0.6-0.1-0.8-0.1c0,0.1,0,0,0,0c0,0,0,0,0,0C14.6,25.5,14.6,25.9,14.6,26.3
				C14.6,26.2,14.6,26.2,14.6,26.3z M12,23.8c0-0.2,0.2-0.5,0.1-0.6c-0.2-0.4-0.5-0.7-0.9-1c-0.1-0.1-0.2,0-0.3,0
				c0,0.1,0.1,0.2,0.1,0.3C11.3,22.9,11.7,23.3,12,23.8z M15.4,25.1C15.4,25.1,15.3,25.1,15.4,25.1c0,0.2,0,0.4,0.1,0.6
				c0.1,0.2,0.2,0.4,0.4,0.6c0,0,0.2,0,0.2,0c0.1-0.3,0.1-0.7,0.2-1c0,0,0,0,0,0c0,0,0,0.1,0,0.1c-0.1-0.1-0.2-0.2-0.3-0.3
				c0,0,0,0,0,0.1c0-0.1,0-0.1,0-0.1C15.6,25.2,15.5,25.2,15.4,25.1c0,0,0,0.1,0,0.1C15.4,25.2,15.4,25.2,15.4,25.1z M17.5,26.9
				c0.1-0.5,0.3-0.8,0.3-1.1c0-0.2-0.4-0.3-0.6-0.5c0,0-0.1,0.1-0.1,0.1c0.1,0.4,0.1,0.8,0.2,1.2c0.1,0,0.1,0,0,0
				C17.4,26.6,17.4,26.6,17.5,26.9z M18,25.4c0.1,0.4,0.1,0.8,0.2,1.2c0.2-0.2,0.4-0.5,0.5-0.7C18.8,25.5,18.8,25,18,25.4z
				 M16.2,25.4c0.1,0.4,0.3,0.7,0.4,1c0.2-0.3,0.4-0.7,0.6-1.1C16.8,25.4,16.6,25.4,16.2,25.4z M20.5,24.9C20.2,25,20,25,19.7,25.1
				c0.2,0.4,0.4,0.7,0.6,1c0.1-0.3,0.2-0.6,0.2-0.8c0-0.1,0-0.1,0,0.1C20.5,25.2,20.5,25,20.5,24.9z M21.4,23.2
				c0.1,0,0.2,0.1,0.2,0.1c0.1-0.4,0.3-0.7,0.4-1.1c0,0-0.1,0-0.1,0c0,0.2-0.1,0.4-0.1,0.7c0,0,0,0,0,0c0-0.2,0.1-0.5,0.1-0.7
				c0,0,0,0,0,0c0,0.2-0.1,0.5-0.1,0.7c0,0,0,0,0,0c0-0.2,0.1-0.4,0.1-0.9c-0.1,0.4-0.1,0.5-0.2,0.7c0,0,0,0,0,0
				c0-0.2,0.1-0.3,0.1-0.8c-0.1,0.3-0.1,0.4-0.2,0.6c0-0.4,0-0.5,0-0.9c-0.1,0.3-0.1,0.5-0.2,0.7c0,0,0,0,0,0c0-0.2,0.1-0.4,0.1-0.6
				c0,0-0.1,0-0.1,0C21.4,22.1,21.4,22.7,21.4,23.2z M13.2,25.8C13.2,25.8,13.3,25.8,13.2,25.8c0-0.2,0-0.3,0-0.3
				c0,0.1,0.1,0.3,0.2,0.5c0,0,0.1,0,0.1,0c0-0.3,0-0.6-0.1-0.9c0,0,0,0,0,0c0,0.3,0.1,0.7,0.1,1.1c-0.1-0.1-0.2-0.1-0.3-0.2
				c0,0,0,0,0,0.1c0.1,0.1,0.2,0.2,0.4,0.3c0-0.3,0-0.5-0.1-0.9c0,0.3,0.1,0.5,0.1,0.6c0-0.3,0-0.5,0-0.8c0-0.1,0-0.2,0-0.2
				c0,0-0.1,0-0.1,0c0,0,0-0.1-0.1-0.2c0,0.1,0,0.1,0,0c0,0.3,0,0.4,0,0.6c0-0.2-0.1-0.4-0.1-0.6c0,0-0.1,0-0.1,0
				C13.2,25.1,13.2,25.4,13.2,25.8z M20.4,24.8c0.2,0.4,0.4,0.7,0.5,1c0.1-0.3,0.1-0.7,0.2-1C20.8,24.8,20.7,24.8,20.4,24.8z
				 M12.8,25.2C12.7,25.2,12.7,25.2,12.8,25.2c0-0.2,0-0.4,0-0.7c0,0,0,0-0.1,0c0,0.3,0,0.6,0.1,1c0-0.1,0.1-0.1,0.1-0.2
				c0,0.1,0,0.1,0.1,0.3c0-0.3,0-0.4-0.1-0.8c0.1,0.4,0.1,0.6,0.1,0.8c-0.1,0-0.1,0-0.3-0.1c0.3,0.2,0.4,0.2,0.5,0.3
				c0,0,0.1-0.1,0.1-0.1c0-0.4-0.1-0.7-0.1-1.1c0,0,0,0,0,0c0,0.3,0,0.6,0,0.9c0,0,0,0,0,0c0-0.3,0-0.6,0-0.9c-0.1,0-0.1-0.1,0,0
				c-0.2-0.1-0.2-0.1-0.2-0.1C12.8,24.8,12.8,25,12.8,25.2z M13.8,24.8c0,0.5,0.1,1,0.1,1.4c0,0,0,0,0.1,0c0-0.2,0-0.5-0.1-1
				c0.1,0.5,0.1,0.7,0.2,1c0,0,0.1,0,0.1,0c0-0.3,0-0.7,0.1-1.2c-0.1,0.3-0.1,0.3-0.1,0.3C14.1,25.2,14,25,13.8,24.8z M21.5,24.4
				c0,0,0.1,0,0.1,0c-0.1-0.3-0.2-0.6-0.2-0.9c0,0,0,0-0.1,0c0,0.1,0.1,0.2,0.1,0.3c0,0,0,0,0,0c-0.1-0.2-0.1-0.3-0.2-0.5
				c0,0-0.1,0-0.1,0c0,0.4,0.1,0.8,0.1,1.1c0,0,0,0,0.1,0c0-0.1,0-0.2,0-0.4c0,0.2,0.1,0.3,0.1,0.4C21.4,24.4,21.4,24.4,21.5,24.4
				C21.4,24.3,21.5,24.4,21.5,24.4z M14.5,25.1c-0.1,0-0.1,0-0.2,0c0,0.4-0.1,0.8-0.1,1.3c-0.1,0,0,0,0.1,0.1
				C14.4,26,14.5,25.6,14.5,25.1z M8.9,19.8c0.3,0.2,0.5,0.3,0.8,0.5c-0.3-0.2-0.4-0.3-0.5-0.4c0,0,0,0,0,0c0.2,0.1,0.3,0.2,0.5,0.3
				c0,0,0,0,0,0c-0.1-0.1-0.2-0.1-0.4-0.3c0.3,0.2,0.4,0.2,0.7,0.4c-0.3-0.3-0.6-0.4-1-0.7c0,0.4,0.1,0.6,0.1,0.9c0.1,0,0.2,0,0.2,0
				C9.2,20.3,9.1,20.2,8.9,19.8c0.3,0.3,0.5,0.5,0.7,0.6c0,0,0,0,0,0C9.4,20.3,9.3,20.1,8.9,19.8z M12.4,24.9c0-0.2,0-0.4,0-0.5
				c0,0-0.1,0-0.1,0c0,0.4,0.1,0.7,0.1,1.1c0,0,0.1,0,0.1,0C12.5,25.3,12.4,25.2,12.4,24.9c0.1,0.3,0.1,0.5,0.1,0.6c0,0,0.1,0,0.1,0
				c0-0.3,0-0.7-0.1-1c0,0-0.1,0-0.1,0C12.4,24.6,12.4,24.7,12.4,24.9z M13.7,20.3C13.7,20.3,13.7,20.2,13.7,20.3
				c0.1,0.2,0.2,0.5,0.3,0.7c0,0,0,0,0,0c-0.1-0.4-0.2-0.8-0.4-1.2c0,0.1,0.1,0.1,0.3,0.4c-0.2-0.3-0.2-0.4-0.3-0.5
				c0,0-0.1,0-0.1,0.1c0,0.3,0,0.6,0,0.9c0,0,0.1,0,0.1,0c0-0.1-0.1-0.2-0.1-0.4C13.6,20.4,13.6,20.4,13.7,20.3c0,0.2,0,0.3,0.1,0.4
				c0,0,0,0,0,0C13.8,20.5,13.7,20.4,13.7,20.3z M21.5,25.6c-0.1-0.5-0.1-0.7-0.1-0.9c0,0,0,0,0,0c0,0.2,0.1,0.4,0.1,0.6
				c0,0,0,0,0,0c-0.1-0.3-0.1-0.5-0.2-0.8c-0.1,0-0.2,0-0.2,0c0,0.3,0,0.5-0.1,0.8c0,0,0.1,0,0.1,0c0-0.1,0-0.1,0-0.3
				c0,0.1,0.1,0.1,0.1,0.2c0-0.1,0-0.2,0-0.3c0,0,0,0,0,0C21.4,25.1,21.4,25.2,21.5,25.6z M21.7,15c0.2,0,0.7,0.1,1,0.2
				c0,0-0.1-0.1-0.2-0.2c0.1,0,0.1-0.1,0.2-0.1c0,0-0.1,0-0.1,0c0-0.1,0.1-0.2,0.1-0.2c0,0,0.1,0,0.1,0c-0.3,0-0.6,0-0.8,0
				c0,0,0.2,0,0.5,0.1c-0.3,0-0.3,0-0.4,0c0.2,0,0.3,0.1,0.5,0.1c-0.2,0-0.2,0-0.2,0c0,0,0,0,0.1,0.1C22.1,15,21.8,15,21.7,15z
				 M26.7,5.7C26.7,5.7,26.7,5.7,26.7,5.7c0.3,1.6,0.6,3.1,0.8,4.6c0,0,0,0,0,0C27.3,8.8,27,7.2,26.7,5.7z M24.9,24.5
				c-0.2,0.5-0.3,0.8-0.5,1.3c0.2-0.2,0.2-0.3,0.3-0.4c-0.2,0.6-0.3,1-0.5,1.5c0,0,0,0,0,0c0.2-0.5,0.4-1.1,0.6-1.6c0,0,0,0,0,0
				c0,0,0,0.1-0.1,0.2C24.7,25.2,24.8,25,24.9,24.5z M27,11C27,11,27,11,27,11c-0.1-1.3-0.2-2.5-0.3-3.8c0,0,0,0,0,0
				C26.7,8.5,26.8,9.8,27,11z M26.8,11.4C26.8,11.4,26.8,11.4,26.8,11.4c-0.1-1.3-0.2-2.6-0.3-3.9c0,0,0,0,0,0
				C26.6,8.8,26.7,10.1,26.8,11.4z M7.9,17.6C7.9,17.6,7.9,17.6,7.9,17.6c-0.1-1.1-0.2-2.1-0.3-3.2c0,0,0,0,0,0
				C7.7,15.5,7.8,16.5,7.9,17.6z M27,10.9C27.1,10.9,27.1,10.8,27,10.9c-0.1-1.1-0.2-2.2-0.3-3.4c0,0,0,0,0,0
				C26.9,8.6,26.9,9.7,27,10.9z M13.1,23.4c0-0.5,0-0.7,0-1.1C13,22.8,13,23.1,13.1,23.4c0,0,0,0,0.1,0.1c0-0.5,0.1-0.9,0.1-1.4
				c0,0,0,0,0,0c0,0.4-0.1,0.9-0.1,1.3C13.1,23.4,13.1,23.4,13.1,23.4c0.1-0.3,0.1-0.6,0.1-0.8c0,0,0,0,0,0
				C13.1,22.8,13.1,23,13.1,23.4z M24.6,26.9C24.6,26.9,24.6,26.9,24.6,26.9c0.2-0.4,0.3-0.8,0.5-1.3c0,0,0,0,0,0
				c0,0.1-0.1,0.2-0.1,0.2c0,0,0,0,0,0c0-0.1,0-0.2,0.1-0.5c-0.2,0.6-0.3,0.9-0.5,1.3c0,0,0,0,0,0c0.1-0.2,0.2-0.4,0.2-0.6
				c0,0,0,0,0,0C24.7,26.3,24.7,26.6,24.6,26.9z M7.7,14.3C7.7,14.3,7.7,14.3,7.7,14.3c0.1,1,0.2,2.1,0.3,3.1c0,0,0,0,0,0
				C7.9,16.4,7.8,15.4,7.7,14.3z M16.3,0.3C16.3,0.3,16.3,0.2,16.3,0.3C15.2,0.5,14.1,0.7,13,1c0,0,0,0,0,0
				C14.1,0.8,15.2,0.5,16.3,0.3z M14.7,16.6C14.7,16.6,14.7,16.6,14.7,16.6c0.1,0.6,0.2,1.1,0.2,1.7c0,0,0,0,0.1,0
				c-0.1-0.8-0.2-1.6-0.3-2.4c0,0,0,0-0.1,0c0,0.4,0.1,0.7,0.1,1.1c0,0,0,0,0.1,0C14.7,16.8,14.7,16.7,14.7,16.6z M17,26.4
				c-0.3,0-0.4,0.1-0.5,0.1c0,0.1,0,0.2,0.1,0.3C16.7,26.7,16.8,26.6,17,26.4z M18.7,31.9C18.6,31.8,18.6,31.8,18.7,31.9
				c-1,0-2,0.1-2.9,0.1c0,0,0,0,0,0C16.7,31.9,17.7,31.9,18.7,31.9z M13.9,23.5C13.9,23.5,13.9,23.5,13.9,23.5
				c0.1-0.9,0.2-1.8,0.3-2.7c0,0,0,0,0,0C14.1,21.7,14,22.6,13.9,23.5z M13.3,24.6c0.1,0,0.1,0,0.2,0c0.1-0.3,0.1-0.7,0.2-1
				c0,0,0,0,0,0c-0.1,0.3-0.1,0.6-0.3,1.1c0.1-0.5,0.1-0.7,0.1-0.9c0,0-0.1,0-0.1,0C13.4,24.1,13.3,24.4,13.3,24.6z M27.5,10.3
				C27.5,10.3,27.6,10.3,27.5,10.3c-0.1-1-0.2-2-0.3-3c0,0,0,0,0,0C27.3,8.3,27.4,9.3,27.5,10.3z M8.4,16.7
				C8.4,16.7,8.4,16.7,8.4,16.7c-0.1-1-0.1-2-0.2-3c0,0,0,0,0,0C8.2,14.7,8.3,15.7,8.4,16.7z M12.8,23.1
				C12.8,23.1,12.8,23.1,12.8,23.1c0-0.4,0-0.8,0-1.2c0,0.5-0.1,1-0.1,1.5c0-0.1,0.1-0.1,0.1-0.1c0,0,0,0.1,0.1,0.4
				c0-0.7,0-1.1,0-1.5c0,0,0,0,0,0C12.8,22.5,12.8,22.8,12.8,23.1z M22.9,13.2c0-0.2,0.1-0.3,0.1-0.4c-0.2,0-0.4,0-0.5,0
				c0,0,0.2,0,0.2,0.1c0,0.1,0,0.3,0,0.4c0,0,0.1,0,0.1,0c0,0-0.1,0-0.1-0.1c0.1,0,0.2,0,0.1,0c0-0.1,0-0.2,0-0.3c0,0,0,0,0.1,0
				C22.9,13,22.9,13.1,22.9,13.2z M8.2,17.2C8.2,17.2,8.3,17.2,8.2,17.2C8.2,16.1,8.1,15,7.9,14c0,0,0,0,0,0C8,15,8.1,16.1,8.2,17.2
				z M9.4,6.8C9.4,6.7,9.4,6.7,9.4,6.8C9,7.4,8.6,8.1,8.2,8.8c0,0,0,0,0,0C8.6,8.2,9,7.5,9.4,6.8z M26.7,8.4
				C26.7,8.4,26.7,8.3,26.7,8.4c0,1,0.1,1.9,0.1,2.9c0,0,0,0,0,0C26.8,10.3,26.8,9.3,26.7,8.4z M27,7.7C27,7.7,27,7.7,27,7.7
				c0.1,1,0.1,1.9,0.2,2.9c0,0,0,0,0,0C27.2,9.7,27.1,8.7,27,7.7z M15.4,26.7c-0.1,0-0.1-0.1-0.2-0.1c-0.2,0-0.4,0-0.7,0
				c0.2,0.1,0.3,0.3,0.4,0.3C15.1,26.9,15.3,26.8,15.4,26.7z M27.1,7.7C27.1,7.7,27.1,7.7,27.1,7.7c0.1,0.9,0.1,1.8,0.2,2.7
				c0,0,0,0,0,0C27.3,9.5,27.2,8.6,27.1,7.7z M15.3,18.3C15.4,18.3,15.4,18.2,15.3,18.3c0-0.7-0.2-1.5-0.3-2.2c0,0,0,0,0,0
				C15.2,16.8,15.3,17.5,15.3,18.3z M17.2,19.4c0,0-0.1,0-0.1,0c0,0.3,0,0.5,0.1,0.8c-0.1,0-0.1-0.1-0.1-0.1c0,0,0,0.1-0.1,0.3
				c0-0.2,0-0.3,0-0.5c0,0.2-0.1,0.3-0.1,0.4c0-0.1,0-0.1,0-0.2c0,0.1-0.1,0.1-0.1,0.2c0.1,0,0.2,0.1,0.3,0.1
				C17,20,17.1,19.7,17.2,19.4z M23.2,2.2C23.2,2.2,23.2,2.3,23.2,2.2c0.6,0.5,1.2,1,1.9,1.5c0,0,0,0,0,0
				C24.5,3.2,23.8,2.7,23.2,2.2z M11.3,21.2C11.3,21.2,11.3,21.1,11.3,21.2c-0.5-0.3-1-0.5-1.5-0.8c0,0,0,0,0,0.1
				C10.3,20.7,10.8,20.9,11.3,21.2z M26.8,13.8C26.8,13.8,26.8,13.8,26.8,13.8c0.1-0.9,0.2-1.7,0.2-2.6c0,0,0,0,0,0
				C26.9,12.1,26.8,12.9,26.8,13.8z M23.5,11.6C23.5,11.6,23.5,11.6,23.5,11.6c-0.5-0.2-1-0.2-1.5-0.3c0,0,0,0,0,0.1
				C22.5,11.4,23,11.5,23.5,11.6z M16.4,12.5C16.4,12.5,16.4,12.5,16.4,12.5c-0.8,0-1.5,0-2.3,0c0,0,0,0,0,0
				C14.9,12.5,15.6,12.5,16.4,12.5z M12,14.8c-0.4,0.2-0.5,0.2-0.7,0.3c0.2,0,0.2,0,0.3,0c-0.1,0.1-0.1,0.1-0.2,0.2
				c0.1,0,0.2,0,0.2,0C11.7,15.2,11.8,15.1,12,14.8z M6.7,11.5C6.7,11.5,6.7,11.5,6.7,11.5c0-1-0.1-2-0.1-3c0,0,0,0,0,0
				C6.6,9.5,6.7,10.5,6.7,11.5z M26.6,10.2C26.6,10.2,26.6,10.2,26.6,10.2c0-0.7-0.1-1.4-0.1-2.1c0,0,0,0,0,0
				C26.5,8.9,26.6,9.6,26.6,10.2z M27,8.5C27,8.5,27,8.5,27,8.5c0,0.8,0,1.5,0.1,2.3c0,0,0,0,0,0C27.1,10,27.1,9.3,27,8.5z
				 M7.8,14.3C7.8,14.3,7.8,14.3,7.8,14.3C7.8,15.2,7.9,16,8,16.9c0,0,0,0,0,0C8,16,7.9,15.2,7.8,14.3z M9.3,20.5
				C9.3,20.5,9.3,20.5,9.3,20.5c0.3,0.2,0.6,0.3,1,0.4c0,0,0,0,0,0C10,20.7,9.6,20.6,9.3,20.5z"/>
			<path class="st0" d="M16.5,0c-1.8,0.5-3.7,0.8-5.4,1.6C8,3,6.1,5.5,6.1,8.9c0,2,0.4,4.1,0.7,6.1c0.1,0.9,0.3,1.7,0.4,2.6
				c0,0.4-0.3,0.9-0.2,1.3c0.4,1,0.9,2,1.5,2.9c0.7,1,0.5,2,0.5,3c0,1.3,0.5,2.3,1.5,3.1c0.9,0.7,1.5,1.7,2.4,2.4
				c0.9,0.8,1.7,1.9,3.2,1.7c-3.9,0-7.8,0-11.7,0c0,0-0.1-0.1-0.1-0.1c0-10.6,0-21.2,0-31.7c0,0,0.1-0.1,0.1-0.1
				C8.4,0,12.5,0,16.5,0z M5,16.5c0,0,0.1,0.1,0.1,0.1c0,0,0,0.1-0.1,0.1c0,0-0.1,0-0.1,0c0,0-0.1-0.1-0.1-0.1c0,0,0,0.1,0,0.1
				c0,0.1,0.1,0.1,0.1,0.1c0.1-0.1,0.2-0.2,0.3-0.4c0,0,0-0.2,0-0.2c-0.1,0-0.2,0-0.2,0C4.9,16.3,4.9,16.4,5,16.5
				C4.9,16.5,5,16.5,5,16.5c0-0.1,0.1-0.1,0.1-0.2C5.1,16.4,5,16.5,5,16.5z M4.5,7.3c0.1-0.1,0.1-0.1,0.2-0.1c0-0.1,0-0.2,0.1-0.2
				c-0.1,0-0.2,0-0.2,0c0,0.1,0,0,0,0c0,0,0.1,0,0.1,0c0,0.1-0.1,0.1-0.1,0.2C4.5,7.3,4.4,7.3,4.3,7.4c0.1,0,0.2,0,0.3,0
				c0,0,0,0,0-0.1C4.6,7.3,4.6,7.3,4.5,7.3z"/>
			<path class="st0" d="M17.1,32c0.8-0.2,1.8-0.1,2.5-0.5c1.6-1.1,3-2.4,4.4-3.8c0.6-0.5,1.1-1.3,1.3-2c0.3-1.2,0.2-2.4,0.3-3.7
				c0-0.2,0.2-0.5,0.3-0.5c0.9-0.5,0.7-1.4,0.9-2.1c0.1-0.5,0.3-1.1,0.3-1.6c0.1-1.5,0.2-3.1,0.4-4.6c0-0.5,0.1-1,0.2-1.5
				c0,6.7,0,13.5,0,20.2c0,0-0.1,0.1-0.1,0.1C24,32,20.6,32,17.1,32z"/>
			<path class="st0" d="M27.7,10c-0.2-1.1-0.2-2.1-0.5-3.2c-0.8-3-2.9-4.7-5.7-5.7c-1.3-0.5-2.6-0.7-3.9-1c3.3,0,6.6,0,9.9,0
				c0,0,0.1,0.1,0.1,0.1C27.7,3.4,27.7,6.7,27.7,10z"/>
			<path class="st0" d="M8.8,9.6c0.3-0.5,0.6-1,0.9-1.5c0,0,0,0,0,0C9.5,8.5,9.2,8.9,8.9,9.3C9.3,8.7,9.7,8,10.1,7.4
				C9.8,7.8,9.5,8.2,9.2,8.6c0.3-0.5,0.7-1,1-1.4c0,0,0,0,0,0c-0.5,0.7-1,1.4-1.4,2c0,0,0,0,0,0c0.6-0.8,1.1-1.6,1.7-2.4
				c0,0,0,0,0,0C9.8,7.5,9.2,8.3,8.6,9.1c0,0,0,0,0,0c0.6-0.9,1.2-1.7,1.8-2.6c0,0-0.1,0-0.1-0.1c-0.7,1-1.4,2.1-2,3.1c0,0,0,0,0,0
				c0.7-1.1,1.4-2.2,2.1-3.3c0,0,0,0,0.1,0c-0.2,0.3-0.5,0.5-0.7,0.8C9.4,7.4,9.2,7.8,9,8.1C8.8,8.4,8.7,8.7,8.3,9
				c0.8-1.1,1.6-2.2,2.4-3.2c0,0,0,0,0,0c-0.5,0.5-1,1-1.4,1.6c-0.4,0.6-0.7,1.2-1,1.7c0,0.1,0,0,0,0c0.8-1.2,1.5-2.4,2.3-3.5
				c0,0,0,0,0,0C9.8,6.6,9.1,7.7,8.4,8.8c0.7-1.2,1.5-2.3,2.2-3.5c0,0,0.1,0,0.1,0c-0.4,0.5-0.8,0.9-1.2,1.4c0,0-0.1-0.1-0.1-0.1
				c0.5-0.5,1.1-1,1.6-1.5c0,0-0.1-0.1-0.1-0.1C10.1,6,9.3,6.9,8.5,7.9c0,0,0,0-0.1,0c0.9-1,1.8-2.1,2.6-2.9C10.5,5,9.2,6.7,8.1,8.7
				C8.1,8.7,8,8.6,7.9,8.5c1-1.3,1.9-2.6,2.9-3.8c0,0,0.1,0,0.1,0c-0.8,0.8-1.6,1.7-2.3,2.5c0,0,0,0-0.1-0.1
				c0.9-0.9,1.8-1.8,2.7-2.8c0,0,0,0,0,0c-0.7,0.7-1.4,1.3-2.1,2c0.8-0.8,1.7-1.6,2.3-2.2c-0.6,0.5-1.3,1.1-2.1,1.7
				c0.8-0.7,1.6-1.4,2.2-1.9c-0.5,0.4-1.3,1-2.1,1.6c0,0,0,0,0,0C10.2,5,11.1,4.3,12,3.7c0,0-0.1-0.1-0.1-0.1c-1.1,1-2.3,2-3.4,3
				c0,0,0.1,0.1,0.1,0.1c0.3-0.3,0.5-0.7,0.7-1c0-0.1,0-0.1,0.1-0.2c0,0,0.1,0,0.1,0c0.9-0.7,1.8-1.4,2.8-2.2
				C11.4,3.9,10.6,4.5,9.8,5c0.3-0.3,0.7-0.6,1-0.9c-0.1-0.1-0.2-0.2-0.3-0.3c-0.5,0.7-1,1.3-1.5,2c1-1.2,2.2-2.1,3.6-2.7
				c-1.8,0.6-3.2,1.7-4.2,3.3c1-1.7,2.4-2.8,4.1-3.6c-1,0.6-2,1.1-2.9,1.7c0,0,0,0,0,0c1-0.6,2-1.2,3-1.8c0,0,0-0.1-0.1-0.1
				c-1.2,0.7-2.3,1.5-3.5,2.2c0,0,0,0,0-0.1c1.3-0.8,2.5-1.6,3.7-2.3c-1.1,0.6-2.2,1.3-3.4,1.9c0,0,0,0.1,0,0.1
				c0.4-0.3,0.7-0.6,1.1-0.9c0.4-0.3,0.8-0.5,1.2-0.8C10.9,3.4,10,4,9.1,4.6c0,0,0,0,0-0.1c1-0.7,2-1.4,3.1-2.1c0,0,0,0,0.1,0.1
				c-0.4,0.2-0.7,0.3-1.1,0.5c0,0,0-0.1,0-0.1c0.9-0.3,1.8-0.6,2.7-1c0,0,0,0,0-0.1c-1.1,0.4-2.1,0.8-3.2,1.3c0,0,0,0,0,0
				c1-0.4,1.9-0.8,2.9-1.2c0,0,0,0,0,0c-0.8,0.3-1.7,0.7-2.5,1c0,0,0,0,0,0c0.9-0.3,1.7-0.7,2.6-1c0,0,0,0,0-0.1
				c-0.9,0.4-1.9,0.8-2.8,1.2c0,0,0-0.1,0-0.1c1.3-0.5,2.7-1,4-1.5c0,0,0,0,0,0.1c-0.4,0.1-0.8,0.2-1.2,0.3C13,1.9,12.7,2,12.3,2.1
				c0.5-0.2,1-0.3,1.5-0.5c0,0,0,0,0-0.1c-0.8,0.3-1.7,0.6-2.5,0.9c0,0,0-0.1,0-0.1c1.3-0.4,2.6-0.8,3.9-1.2c0,0,0,0,0,0
				c-1.3,0.4-2.5,0.8-3.8,1.2c0,0,0,0,0-0.1c1.4-0.4,2.9-0.9,4.3-1.3c0,0,0,0,0,0c-1.3,0.4-2.7,0.8-4,1.2c0,0,0,0,0-0.1
				c1.5-0.4,2.9-0.8,4.4-1.3c0,0,0,0,0,0c-1.3,0.3-2.6,0.7-3.9,1c0,0,0,0,0-0.1c1.4-0.4,2.9-0.7,4.2-1.1c-0.7,0.2-1.7,0.3-2.5,0.5
				c2.6-0.9,5.3-0.8,8,0.5c-0.2-0.1-0.3-0.1-0.4-0.1c0,0,0.1-0.1,0.1-0.1c1.3,0.9,2.7,1.8,4,2.6c0,0-0.1,0.1-0.1,0.1
				c-0.9-0.7-1.8-1.4-2.6-2.1c0,0-0.1,0.1-0.1,0.1c0.3,0.2,0.6,0.3,0.9,0.5c0,0,0,0,0,0c-0.1-0.1-0.3-0.1-0.4-0.2
				c0.1-0.1,0.2-0.2,0.3-0.3c0.5,0.7,1.1,1.4,1.6,2.1c-0.1-0.2-0.3-0.3-0.4-0.5c0,0,0,0-0.1,0.1c0.2,0.2,0.4,0.4,0.6,0.7
				c-0.2-0.2-0.4-0.3-0.6-0.6c0.3,0.3,0.5,0.6,0.7,0.8c-0.1-0.2-0.3-0.3-0.3-0.4c0.3,0.5,0.7,1.1,1,1.7c-0.3-0.5-0.6-1.1-1-1.6
				c0,0,0,0,0,0c0.4,0.8,0.9,1.6,1.2,2.2c0,0-0.1-0.3-0.2-0.6c0.1,0.2,0.2,0.4,0.3,0.6c0,0,0,0,0,0c-0.1-0.4-0.3-0.8-0.4-1.2
				C25.8,6,26,6.3,26.2,6.8C26,6.3,25.9,6,25.8,5.7c0.2,0.3,0.3,0.6,0.5,1C26.2,7.4,26.1,8.2,26,9c0-0.4,0-0.6,0-1.1
				c-0.1,0.4-0.1,0.6-0.1,0.9c0,0,0,0,0,0c-0.3,1.4-0.9,2.9-0.2,4.4c-0.1,0.1-0.1,0.2-0.1,0.2c-0.1,0-0.2,0-0.1,0
				c-0.5-0.5-0.9-1.2-1.5-1.5c-0.6-0.3-1.3-0.7-2-0.6c-0.9,0.1-1.8,0.7-2.6,1c0,0-0.1,0-0.1,0.1c0,0,0,0-0.1,0l0,0c0,0,0,0-0.1,0
				c0,0,0,0,0,0c0,0,0,0-0.1,0c0,0,0,0,0,0c0,0-0.1,0-0.1,0.1c-0.2,0.1-0.5,0.2-0.7,0.2c-0.1,0-0.3,0-0.6,0.1
				c0.3-0.1,0.4-0.2,0.6-0.3c-0.3,0.1-0.4,0.1-0.6,0.2c0,0,0,0,0,0c0.2-0.1,0.3-0.1,0.5-0.2c0,0,0,0,0,0c-0.2,0.1-0.4,0.2-0.6,0.2
				c0,0,0,0,0,0c0.1-0.1,0.2-0.1,0.4-0.2c0,0,0,0,0,0c-0.2,0.1-0.5,0.2-0.7,0.3c0,0,0-0.1,0-0.1c0.2-0.1,0.4-0.2,0.4-0.2
				c-1.2,0-2.5,0-3.8,0c0,0,0,0,0-0.1c1.3,0,2.6,0,3.8,0c0,0,0,0,0,0c-1.3,0-2.6,0-3.9,0c-0.1,0-0.3-0.1-0.4-0.1c1.3,0,2.5,0,3.8,0
				c-1.2-0.1-2.5-0.1-3.7-0.1c0,0-0.1,0-0.1,0.1c-0.1,0-0.1,0-0.3-0.1c0.7,0,1.4,0,2.1,0c0,0,0,0,0,0c-0.7,0-1.4,0-2.1,0
				c-0.2,0-0.5-0.2-0.7-0.3c-0.1,0-0.2-0.1-0.3-0.1C11,11.8,9.8,12,9.1,13c-0.7,0.9-0.3,2-0.1,3c0.3,1.5,1.4,1.9,3.2,1.3
				c0.1,0,0.3-0.1,0.5,0c-1,0.6-2,1.2-3,1.8c0,0,0,0,0,0C9.4,18.8,9,18.4,8.7,18c0,0,0,0,0.1,0c0.3,0.4,0.7,0.7,1,1.1
				c-0.3-0.5-0.7-1-1.1-1.5c0,0,0.1,0,0.1-0.1c0.2,0.2,0.4,0.5,0.6,0.7c0,0,0,0,0.1-0.1c-0.1-0.2-0.3-0.4-0.4-0.6
				c0.2,0.2,0.5,0.4,0.8,0.6c0,0,0,0,0,0c-0.1-0.1-0.3-0.2-0.5-0.4c0.2,0,0.3,0,0.3,0c-0.3-0.3-0.6-0.6-1-0.9c0,0,0.1-0.1,0.1-0.1
				C8.9,16.8,9,17,9.2,17.2c-0.1,0-0.1,0-0.2,0c-0.2-1.2-0.4-2.4-0.6-3.6c0.1,0,0.1,0,0.2,0c0,0,0,0.1-0.1,0.2c0-0.1,0-0.2,0-0.3
				c0,0.1-0.1,0.1-0.2,0.4c0.2-0.5,0.3-0.8,0.4-1.1c0.1-0.1,0.2-0.3,0.3-0.4c0.2-0.2,0.4-0.4,0.5-0.6c0,0.1-0.1,0.1-0.1,0.2
				c-0.1,0.1-0.1,0.3-0.1,0.1c0.6-0.6,1.5-1.4,2.3-2.2c0,0,0,0,0,0c-0.7,0.7-1.4,1.3-2.1,2c0.6-0.8,1.2-1.5,1.8-2.3
				c0.1,0.1,0.1,0.1,0.2,0.2c-0.7,0.7-1.3,1.3-2,2c0.7-0.7,1.3-1.4,1.8-1.9c-0.3,0.3-0.9,0.8-1.5,1.3c0.4-0.6,0.8-1.2,1.2-1.8
				c0.1,0.1,0.2,0.2,0.3,0.3c-0.5,0.5-1.1,1-1.6,1.4c0.4-0.5,0.8-1,1.3-1.6c-0.6,0.7-1.1,1.3-1.6,1.9c0.5-0.6,1-1.2,1.5-1.7
				c0,0,0,0,0,0c-0.6,0.6-1.1,1.3-1.7,1.9c0.5-0.7,1-1.3,1.5-1.9c-0.4,0.4-0.8,0.9-1.3,1.4c0.2-0.3,0.4-0.5,0.6-0.8
				c0.2-0.2,0.5-0.4,0.7-0.7c0,0-0.1-0.1-0.1-0.1C10,10.2,9.5,11,8.9,11.7c0.5-0.7,0.9-1.4,1.3-1.9c-0.2,0.3-0.6,0.7-0.9,1.1
				c0.3-0.4,0.6-0.9,1-1.3c0,0,0,0,0,0c-0.4,0.6-0.8,1.1-1.2,1.7c0.4-0.6,0.9-1.3,1.3-1.9c0,0,0,0,0,0c-0.4,0.6-0.8,1.1-1.3,1.7
				c0.3-0.5,0.6-0.9,0.9-1.3C9.8,9.7,9.6,10,9.4,10.2C9.6,9.9,9.8,9.6,10,9.3c0,0,0,0-0.1,0C9.6,9.8,9.2,10.4,8.8,11
				c0.4-0.6,0.7-1.2,1.2-2c-0.5,0.7-0.9,1.3-1.3,1.8c0.3-0.5,0.5-1,0.7-1.4C9.4,9.5,9.2,9.8,9,10c0,0,0,0-0.1,0
				c0.4-0.5,0.8-1.1,1.2-1.6c0,0,0,0,0,0C9.8,8.9,9.3,9.4,8.9,10c0,0,0,0,0,0c0.5-0.6,1-1.3,1.5-1.9c-0.3,0.3-0.6,0.7-1,1
				c0,0,0,0,0,0c0.3-0.4,0.6-0.8,1-1.2c0,0,0,0-0.1-0.1C9.8,8.4,9.4,9,8.9,9.6C9.3,9,9.6,8.5,10,8c0,0,0,0,0,0
				C9.6,8.5,9.2,9,8.8,9.6z M25.5,6.6c0.1,0.3,0.3,0.6,0.4,0.9c0,0,0,0,0.1,0c-0.2-0.5-0.5-1.1-0.7-1.6c0.2,0.5,0.5,1,0.7,1.5
				c-0.1-0.2-0.1-0.4-0.2-0.6c0.1,0.1,0.1,0.2,0.2,0.3c0,0,0.1,0,0.1,0c-0.3-0.7-0.7-1.4-1-2.1c0,0-0.1,0-0.1,0
				c0.2,0.3,0.4,0.7,0.6,1c-0.2-0.3-0.4-0.5-0.6-0.8c0,0,0,0,0,0c0.1,0.2,0.2,0.4,0.4,0.6c-0.1-0.1-0.2-0.3-0.4-0.5
				C25.1,5.9,25.3,6.3,25.5,6.6c-0.1-0.2-0.3-0.5-0.6-0.9c0.4,0.8,0.6,1.3,0.9,1.9C25.7,7.3,25.6,7,25.5,6.6z M25,6.3
				c0.3,0.6,0.5,1.1,0.8,1.6c0,0,0,0,0,0c-0.1-0.2-0.2-0.5-0.3-0.7c0,0,0,0,0,0c0.1,0.2,0.2,0.4,0.2,0.6c0,0,0,0,0.1,0
				c-0.2-0.5-0.5-1-0.7-1.5C25.1,6.2,25.1,6.2,25,6.3c0.2,0.2,0.3,0.4,0.4,0.6c0,0,0,0,0,0C25.2,6.7,25.1,6.6,25,6.3z M10,18.4
				c-0.2-0.1-0.2-0.2-0.3-0.2c-0.1,0.1-0.2,0.2-0.3,0.4c0.1,0,0.1,0.1,0.2,0.1C9.7,18.6,9.8,18.5,10,18.4z M13.6,12.2
				C13.6,12.2,13.6,12.3,13.6,12.2c1.3,0,2.6,0,3.8,0c0,0,0,0,0,0C16.2,12.2,14.9,12.2,13.6,12.2z M15.3,10c-0.3,0-0.9,0-1.4,0
				c0,0-0.1,0.1-0.1,0.1c0,0.1,0.1,0.1,0,0C14.4,10.1,15,10,15.3,10z M10.2,11.4C10.2,11.4,10.2,11.4,10.2,11.4
				c0.6-0.4,1.1-0.8,1.7-1.2c0,0,0,0,0,0C11.3,10.5,10.8,11,10.2,11.4z M13,12C13,12,13,12,13,12c0.6,0,1.2,0,1.9,0c0,0,0,0,0,0
				C14.2,12,13.6,12,13,12z"/>
			<path class="st0" d="M24.2,25c-0.1,0.4-0.1,0.8-0.2,1.4c0.1-0.5,0.2-0.8,0.3-1.1c0,0,0,0,0,0c-0.2,0.6-0.3,1.2-0.5,1.9
				c0-0.1,0-0.1,0-0.2c-0.3,0.4-0.5,0.8-0.9,1.5c0.3-0.4,0.5-0.6,0.7-0.8c-1.4,2-3.4,3.3-5.7,4.1c0.5-0.1,1-0.2,1.4-0.3
				c0,0,0,0.1,0,0.1c-0.8,0.1-1.6,0.2-2.4,0.2c-0.5,0-1,0-1.5,0c0.8,0,1.5,0,2.3,0c-1.1,0-2.2,0.2-3.1-0.7c-0.1-0.1-0.2-0.2-0.4-0.4
				c0.2,0.1,0.3,0.2,0.3,0.2c0,0,0,0,0,0c-0.1-0.1-0.1-0.1-0.2-0.2c0,0,0,0,0,0c0.1,0.1,0.2,0.1,0.3,0.2c0,0,0,0,0,0
				c-0.3-0.2-0.6-0.5-0.9-0.7c0,0,0,0,0,0c0,0,0,0,0,0c0,0,0,0,0,0c0,0-0.1-0.1-0.1-0.1c0.5,0.3,0.9,0.6,1.4,0.9c0,0,0,0,0-0.1
				c-0.3-0.2-0.6-0.4-1-0.7c-0.1-0.1-0.2-0.3-0.3-0.4c0,0,0,0,0.1-0.1c-0.4-0.4-0.8-0.8-1.2-1.2c0.1,0.1,0.2,0.1,0.3,0.2
				c0,0,0,0,0.1-0.1c-0.3-0.2-0.5-0.4-0.8-0.6c0,0,0.1-0.1,0.1-0.1c0.1,0.1,0.1,0.1,0.3,0.2c-0.1-0.2-0.2-0.3-0.4-0.5
				c0.2,0.2,0.3,0.3,0.5,0.4c-0.2-0.3-0.4-0.5-0.6-0.7c0.2,0.2,0.3,0.3,0.5,0.5c-0.2-0.4-0.5-0.7-0.7-1.1c0.2,0.2,0.4,0.5,0.6,0.7
				c0,0,0,0,0,0c0-0.1-0.1-0.1-0.1-0.2c0.1,0.1,0.1,0.1,0.2,0.2c-0.1-0.2-0.2-0.3-0.3-0.4c0.1,0.1,0.1,0.1,0.3,0.3
				c-0.2-0.3-0.3-0.4-0.5-0.6c0.2,0.2,0.3,0.3,0.5,0.4c0.1,0.1,0.1,0.1,0.2,0.2c-0.1-0.2-0.2-0.4-0.2-0.5c0.2,0.2,0.4,0.5,0.7,0.8
				c-0.3-0.5-0.5-0.9-0.8-1.3c0.1,0.1,0.2,0.1,0.2,0.1c0.1,0,0.1,0,0.2,0.1c0,0,0-0.1-0.1-0.1c0,0,0.1,0,0.1,0c0-0.1,0-0.2-0.1-0.4
				c0.2,0.1,0.5,0.2,0.7,0.3c0,0,0-0.1,0-0.1c0.4,0.2,0.9,0.5,1.4,0.8c0-0.2,0-0.1,0,0.1c0-0.3,0-0.3,0-0.4c0,0,0,0,0,0
				c0,0.1,0,0.1,0,0.3c0-0.3,0-0.4,0-0.5c0.2,0.1,0.5,0.1,0.7,0.2c0,0,0,0.1,0,0.3c0,0,0,0,0,0c0-0.3,0-0.6,0-0.9
				c0.1,0.8,0.4,0.9,1,0.3c0,0.2,0,0.3-0.1,0.5c0.1-0.2,0.1-0.3,0.1-0.4c0.1,0.1,0.1,0.2,0.2,0.2c0.2-0.1,0.4-0.2,0.6-0.3
				c0-0.1,0-0.2,0-0.2c0,0.2,0.1,0.4,0.1,0.6c0-0.1,0.1-0.2,0.1-0.2c0,0,0.1,0.1,0.1,0.1c0.1-0.1,0.2-0.1,0.2-0.2
				c0-0.1,0.1-0.2,0.1-0.3c0.5,0.5,0.9,1.2,1.4,0.2c0.1-0.1,0.1-0.1,0,0c0,0,0.1,0,0.1,0c0,0,0,0.1,0,0.1c0,0,0,0,0.1,0.2
				c0.2-0.3,0.3-0.6,0.5-0.9c0,0.1,0,0.1,0,0.2c0,0,0,0-0.1,0.1c0.1,0,0.1,0,0.3-0.1c-0.2,0.1-0.2,0.2-0.3,0.3
				c0.1,0.1,0.2,0.1,0.2,0.2c0.9-1.2,1.8-2.3,2.7-3.5c-0.1,0-0.1-0.1-0.2-0.1c-0.1,0.3-0.2,0.6-0.4,1c0.1-0.1,0.1-0.2,0.2-0.3
				c-0.2,0.9-0.4,1.7-0.5,2.3c1.4-1.3,1.5-3.4,2-5.4c0.1,0.3,0.2,0.5,0.3,0.7c0-0.1,0-0.1,0-0.2c0,0,0,0,0,0
				c-0.2,0.9-0.5,1.7-0.7,2.6c0,0,0,0,0.1,0c0.2-0.6,0.3-1.1,0.5-1.5c0,0,0,0.1,0,0.4c0.1-0.2,0.1-0.2,0.1-0.3c0,0,0,0,0.1,0
				c0,0.2-0.1,0.4-0.1,0.6c0,0,0,0,0.1,0c0-0.1,0-0.1,0-0.2c0,0,0,0,0,0c-0.1,0.2-0.1,0.5-0.2,0.9c0-0.5,0.1-0.8,0.1-1.1
				c0,0,0,0,0,0c0,0.2-0.1,0.5-0.1,0.7c0,0,0,0-0.1,0c0-0.1,0.1-0.2,0.1-0.4c0,0-0.1,0-0.1,0c-0.2,0.7-0.3,1.3-0.5,2
				c0.1,0,0.1-0.1,0.1-0.1c-0.1,0.2-0.1,0.3-0.2,0.5c0.1-0.2,0.2-0.3,0.2-0.3C24.2,24.9,24.2,25,24.2,25z M20.9,28.2
				c-0.1-0.1-0.2-0.2-0.2-0.3c0,0.2-0.1,0.3-0.1,0.5c0,0.1,0,0.3,0.1,0.3c0.1,0.1,0.3,0,0.4,0c0.1,0,0.1-0.2,0.3-0.3
				c-0.2,0.1-0.2,0.1-0.4,0.1c0.2-0.1,0.2-0.1,0.5-0.3c-0.4,0.1-0.4,0.2-0.7,0.3c0.2-0.1,0.3-0.2,0.4-0.2c-0.1,0-0.2,0-0.3,0
				c0.1-0.1,0.1-0.1,0.2-0.1c0,0,0,0,0,0c-0.1,0.1-0.2,0.1-0.4,0.2C20.8,28.3,20.8,28.2,20.9,28.2z M13.8,29.2
				c0-0.1,0.1-0.3,0.1-0.3c-0.1-0.1-0.3-0.2-0.7-0.5c0.1,0.3,0.1,0.3,0.2,0.4c-0.1-0.1-0.1-0.1-0.3-0.3c0.2,0.3,0.3,0.3,0.5,0.5
				c-0.2-0.2-0.3-0.3-0.5-0.4c0,0,0,0,0,0c0.2,0.2,0.4,0.4,0.7,0.6c0-0.1,0-0.1-0.1-0.2c0.1,0.1,0.2,0.1,0.4,0.3
				C13.8,29.2,13.8,29.2,13.8,29.2z"/>
			<path class="st0" d="M15.3,20.1c-0.1-1-0.2-2-0.3-3.1c0,0,0,0,0.1,0c0,0.5,0.1,0.9,0.1,1.4c0,0,0,0,0,0c0-0.5-0.1-1-0.1-1.5
				c0,0,0,0,0.1,0c0,0.7,0.1,1.4,0.1,2.1c0,0-0.1,0-0.1,0c0-0.2-0.1-0.5-0.1-0.7c0.1,1.2,0.3,2.3,0.4,3.5c0,0,0,0,0,0
				c0-0.4,0-0.8,0-1.2c0,0,0,0,0,0c0,0.4,0,0.9,0,1.3c0,0,0,0,0.1,0c0-0.4,0-0.7,0-1.1c0,0,0,0,0,0c0,0.3,0,0.6,0,1c0,0,0,0,0,0
				c0-0.5,0-1.1,0-1.6c0,0,0,0,0.1,0c0,0.6,0,1.3,0,1.9c0,0,0.1,0,0.1,0c0-0.5,0-1,0-1.6c0,0,0,0,0,0c0,0.6,0,1.2,0,1.9c0,0,0,0,0,0
				c0-0.6,0-1.1,0-1.7c0,0,0,0,0,0c0,0.2,0,0.5,0,0.7c0,0,0,0,0,0c0-0.2,0-0.5,0-0.7c0,0,0,0,0,0c0,0.8,0,1.6,0,2.3c0,0,0,0,0,0
				c0-0.6,0-1.2,0-1.9c0,0,0,0,0,0c0,0.5,0,1,0,1.5c0,0,0,0,0,0c0-0.6,0-1.2,0-1.8c0,0,0,0,0.1,0c0,0.4,0,0.8,0,1.2c0,0,0,0,0,0
				c0-0.3,0-0.7,0-1c0,0,0,0,0.1,0c0,0.3,0,0.6,0,0.9c0,0,0,0,0,0c0-0.4,0-0.8,0-1.2c0,0,0,0,0,0c0,0.4,0,0.8,0,1.1c0,0,0,0,0.1,0
				c0-0.3,0-0.7,0-1.2c0,0.5,0,0.8,0.1,1c0,0,0,0,0,0c0-0.3,0-0.5,0-0.8c0,0,0,0,0,0c0,0.2,0,0.4,0,0.6c0,0,0,0,0,0
				c0-0.2,0-0.4,0-0.8c0,0.4,0.1,0.6,0.1,1.1c0-0.5,0-0.6,0-1.1c0,0.5,0.1,0.8,0.1,1c0,0,0,0,0,0c0-0.1,0-0.3,0-0.7
				c0,0.4,0.1,0.6,0.1,0.8c0,0,0.1,0,0.1,0c0-0.4-0.1-0.8-0.1-1.1c-0.1,0,0,0,0,0c0,0,0.1-0.1,0.1-0.3c0,0.5,0,0.8,0,1.2
				c0,0,0,0,0,0c0-0.3,0.1-0.6,0.1-0.9c0,0,0,0,0,0c0,0,0,0.1,0,0.2c0.1-0.1,0.1-0.2,0.1-0.3c0,0,0.1,0.1,0.1,0.1
				c0-0.1,0.1-0.1,0.1-0.2c0,0,0,0,0.1,0.2c0.4-0.4,1-0.8,1.2-1.2c0.2-0.4,0-1.1-0.1-1.6c-0.3-1.1-0.6-2.3-0.9-3.4
				c-0.1-0.5-0.1-1.1,0.1-1.7c0,0.1-0.1,0.3-0.1,0.4c0,0,0,0,0,0c0.1-0.1,0.1-0.3,0.2-0.4c0,0,0,0,0,0c-0.1,0.2-0.1,0.4-0.2,0.6
				c0,0,0,0,0,0c0.1-0.2,0.1-0.4,0.2-0.6c0,0.2,0,0.3,0,0.5c0,0,0.1,0,0.2-0.1c-0.1,0.3-0.2,0.5-0.3,0.8c0,0,0,0,0,0
				c0.1-0.3,0.2-0.5,0.3-0.8c0.1,0.1,0.2,0.1,0.1,0c0.3,0,0.2,0,0.2,0c0,0,0.1,0,0.1-0.1c-0.1,0-0.1,0-0.2,0c0.1,0,0.1-0.1,0.1-0.1
				c0.3-0.1,0.5-0.3,0.8-0.4c0,0,0,0.1,0,0.1C19.1,13.3,19,13.6,19,14c-0.1,0-0.1,0-0.2-0.1c0,0,0-0.1,0-0.1c0,0,0-0.1-0.1-0.1
				c0,0,0.1,0-0.1,0c0.1,0.2,0.2,0.4,0.2,0.7c0.1,1.3,1,2,1.7,2.9c0,0,0.1,0.1,0.2,0c-0.5-0.6-1-1.1-1.3-1.4
				c0.3,0.1,0.8,0.3,1.4,0.5c0.1,0,0.1,0,0.2,0.1l0,0c0.1,0.1,0.2,0.3,0.2,0.4c0.2,0.2,0.3,0.5,0.5,0.7c0.1-0.1,0.1-0.1,0.2-0.2
				c0,0-0.1-0.1-0.3-0.2c0.3,0.2,0.4,0.2,0.5,0.3c-0.1,0-0.1,0-0.2,0c0.6,0.3,1.2,0.6,1.6,0.8c0.1,0,0,0-0.4,0
				c0.5,0.1,0.7,0.2,1.1,0.3c0,0,0.2,0.1,0.4,0.3c0-0.1,0,0,0,0c0,0,0.1,0,0,0c0.2,0.2,0.4,0.4,0.6,0.6c-0.1,0.1-0.2,0.1-0.3,0.2
				c0,0.1,0,0.2,0,0.3c0,0.1-0.1,0.1-0.1,0.1C24.9,20,24.8,20,24.8,20c-0.5,0.1-1,0.1-1.5,0.2c0.4-0.1,0.9-0.1,1.6-0.2
				c-0.6,0-0.9,0-1.3,0.1c0,0,0,0,0,0c0.3,0,0.7,0,1.3-0.1c-0.5,0-0.8,0-1.1,0c0,0,0,0,0,0c0.2,0,0.5,0,0.7,0c0,0,0,0,0,0
				c-0.3,0-0.6,0-0.8,0c0,0,0,0,0,0c0.3,0,0.6,0,0.9-0.1c0,0,0,0,0-0.1c-0.4,0.1-0.9,0.1-1.3,0.2c0,0,0,0,0,0
				c0.4-0.1,0.8-0.1,1.3-0.2c0,0,0,0,0,0c-0.4,0-0.8,0.1-1.2,0.1c0,0,0,0,0,0c0.4-0.1,0.7-0.1,1.1-0.2c0,0,0,0,0-0.1
				c-0.4,0.1-0.9,0.1-1.3,0.2c0,0,0,0,0,0c0.4-0.1,0.8-0.2,1.5-0.3c-0.5,0-0.7,0.1-1.3,0.1c0.5-0.1,0.8-0.1,1-0.2c0,0,0,0,0,0
				c-0.3,0-0.5,0.1-0.8,0.1c0,0,0,0,0,0c0.2,0,0.4-0.1,0.6-0.1c0,0,0,0,0-0.1c-0.3,0-0.5,0.1-0.8,0.1c0,0,0,0,0.2-0.1
				c-0.3,0.1-0.5,0.2-0.7,0.3c0,0,0,0,0-0.1c0.4-0.1,0.7-0.2,1.1-0.3c0,0,0,0,0,0c-0.3,0.1-0.7,0.1-1,0.2c0,0,0,0,0,0
				c0.3-0.1,0.7-0.2,1-0.3c0,0,0,0,0,0c-0.3,0.1-0.7,0.2-1,0.2c0,0,0,0,0,0c0.3-0.1,0.6-0.2,0.9-0.3c0,0,0,0,0,0
				c-0.3,0.1-0.6,0.2-0.9,0.2c0,0,0,0,0,0c0.2-0.1,0.5-0.2,1-0.3c-0.4,0.1-0.6,0.1-0.8,0.2c0,0,0,0,0,0c0.1,0,0.3-0.1,0.7-0.2
				c-0.4,0.1-0.5,0.1-0.6,0.1c0,0,0,0,0,0c0.1,0,0.2-0.1,0.3-0.1c0,0,0,0,0,0c-0.2,0.1-0.4,0.1-0.6,0.2c0,0,0,0,0,0
				c0.2-0.1,0.3-0.1,0.5-0.2c0,0,0,0,0,0c-0.2,0.1-0.4,0.1-0.5,0.2c0,0,0,0,0,0c0.2-0.1,0.3-0.1,0.5-0.2c0,0,0,0,0,0
				c-0.4,0.1-0.7,0.2-1.1,0.4c0.1-0.1,0.3-0.1,0.4-0.2c0,0-0.1-0.1-0.1-0.1c0.1-0.1,0.3-0.2,0.4-0.2c-0.2,0.1-0.5,0.1-0.7,0.2
				c0,0,0,0-0.1,0c0,0,0,0,0,0c0,0-0.1,0-0.1,0c0.1-0.2,0.3-0.3,0.4-0.5c0,0,0,0,0,0.1c0-0.2-0.1-0.4-0.2-0.4
				c-0.5,0.2-1,0.4-1.4,0.6c-0.2,0.1-0.4,0.4-0.6,0.7c0,0-0.1-0.1-0.1-0.1c0.4-0.3,0.8-0.7,1.2-1c0,0,0,0-0.1-0.1
				c-0.4,0.4-0.9,0.8-1.3,1.3c0,0-0.1-0.1-0.1-0.1c0.4-0.5,0.8-1,1.1-1.4c0,0,0,0,0.1,0c-0.5,0.5-1,0.9-1.4,1.4
				c0.1,0.1,0.2,0.2,0.2,0.2c0-0.1,0-0.2,0-0.4c0,0,0,0-0.1,0c0,0.2,0,0.4,0,0.7c0-0.1,0-0.1,0.1-0.2c0,0.1,0,0.2,0.1,0.3
				c0,0,0.1-0.1,0.1-0.1c0,0.1,0,0.2,0,0.3c0-0.1,0.1-0.1,0.1-0.1c0,0.1-0.1,0.2-0.1,0.4c0-0.1,0.1-0.1,0.1-0.1c0,0.1,0,0.3,0,0.5
				c0-0.2,0.1-0.2,0.1-0.4c0,0.3,0,0.6,0,0.9c0,0,0,0,0,0c0-0.2,0-0.4,0.1-0.8c0,0.6,0.1,1,0.1,1.5c0,0,0,0,0.1,0
				c0-0.1,0-0.2-0.1-0.6c0.1,0.3,0.1,0.3,0.1,0.5c0-0.3,0-0.4,0-0.6c0.1-0.2,0.1-0.3,0.2-0.6c0,0.2-0.1,0.3-0.1,0.5
				c0.1-0.1,0.1-0.2,0.1-0.3c-0.1,0.4-0.1,0.7-0.2,1.2c0.1-0.5,0.2-0.8,0.3-1.1c0,0,0,0,0,0s0,0,0,0c0,0,0-0.1,0.2-0.4
				c-0.1,0.6-0.1,0.9-0.1,1.3c0.1-0.3,0.1-0.6,0.2-0.9c0,0,0,0,0,0c0,0.2-0.1,0.5-0.1,0.7c0,0,0,0,0,0c0.1-0.2,0.1-0.5,0.2-0.7
				c0,0,0,0,0,0c0,0.2-0.1,0.4-0.1,0.7c0.1-0.3,0.1-0.5,0.2-0.6c0,0.2,0,0.3,0,0.4c0-0.2,0.1-0.3,0.2-0.8c-0.1,0.6-0.2,0.9-0.3,1.2
				c0,0,0,0,0,0c0-0.2,0.1-0.5,0.1-0.7c0,0,0,0,0,0c0,0.1,0,0.2-0.1,0.5c0.1-0.2,0.1-0.3,0.1-0.4c0,0.3-0.1,0.7-0.1,1
				c0,0,0.1,0,0.1,0c0-0.2,0-0.4,0-0.6c0,0,0,0,0,0c0,0.2,0,0.3,0,0.5c0,0,0,0,0.1-0.1c0,0.3,0.1,0.6,0.1,1.1
				c-0.3-0.2-0.6-0.3-0.7-0.4c0,0,0,0.2,0,0.5c0-0.1,0-0.1,0.1-0.1c0,0.1,0,0.2,0.1,0.4c0,0,0,0,0,0c0-0.1,0-0.1,0-0.2
				c0,0,0,0,0.1,0c0.1,0.4,0.2,0.7,0.3,1.1c-0.1,0-0.1,0-0.2,0c0-0.1,0-0.2-0.1-0.4c0,0.2,0,0.3-0.1,0.4c0,0,0,0,0,0.1
				c-0.2-0.1-0.4-0.1-0.4-0.2c0-0.2,0-0.5,0-0.9c-0.1,0.2-0.1,0.3-0.1,0.3c0-0.2-0.1-0.4-0.1-0.7c-0.2-0.1-0.5-0.1-0.8-0.2
				c0,0.1,0,0.1-0.1,0.2c-0.3,0-0.6,0-1,0c0-0.1,0,0.1,0,0c-0.4,0.1-0.7,0.3-1,0.4c0,0,0-0.1,0-0.2c0,0,0,0-0.1,0
				c0,0.5-0.1,1.1-0.1,1.6c0-0.3,0-0.7,0-1c0,0-0.1,0-0.1,0c0-0.1,0-0.2,0.1-0.3c-0.4-0.1-0.7-0.1-1.1-0.2C16,23.8,16,23.9,16,23.9
				c-0.3-0.2-0.6-0.3-1.1-0.6c0.1,0.2,0.1,0.2,0.1,0.1c-0.1,0.3-0.1,0.5-0.1,0.7c0,0,0-0.1,0,0c-0.1,0.3-0.2,0.6-0.4,1
				c-0.1,0-0.1,0-0.2-0.1c0-0.1,0-0.1,0-0.2c0,0,0,0-0.1,0.1c0-0.1,0-0.3,0-0.6c-0.1,0.3-0.1,0.4-0.1,0.5c0,0,0,0,0,0
				c0-0.3,0.1-0.6,0.2-1.2c0,0.3,0,0.4,0,0.3c0.1-0.1,0.2-0.3,0.3-0.5c0.1,0.1,0.2,0.3,0.4,0.5c-0.1-0.2-0.1-0.4-0.2-0.5
				c-0.2-0.1-0.4-0.1-0.6-0.2c0.1-0.6,0.2-1.4,0.2-2.1c0,0.1,0,0.1,0,0.2c0,0,0,0,0.1,0c-0.1-0.6-0.1-1.2-0.2-1.8c0,0,0,0,0,0
				c0.1,0.5,0.1,0.9,0.2,1.4c0,0,0,0,0,0c0-0.4-0.1-0.8-0.1-1.2c0,0,0,0,0,0c0,0.4,0.1,0.9,0.1,1.3c0,0,0,0,0,0c0-0.4,0-0.7-0.1-1.1
				c0,0,0,0,0,0c0,0.4,0.1,0.8,0.1,1.2c0,0,0,0,0,0c0-0.3,0-0.6-0.1-0.9c0,0,0,0,0,0c0,0.4,0.1,0.8,0.1,1.2c0,0,0,0,0,0
				c0-0.4,0-0.8-0.1-1.1c0,0,0,0,0,0c0,0.3,0.1,0.6,0.1,1c0-0.3,0-0.5,0-0.7c0,0,0,0,0,0c0,0.1,0,0.3,0,0.4c0,0,0,0,0,0
				c0-0.1,0-0.3,0-0.6c0.1,0.8,0.1,1.5,0.1,2.1c0,0,0,0,0,0c0-0.1,0-0.3,0-0.7c0,0.4,0,0.5,0,0.6c0,0,0.1,0,0.1,0
				c-0.1-1.3-0.2-2.5-0.3-3.8c0,0,0,0,0,0c0.1,1.1,0.2,2.3,0.2,3.3c0-0.3,0-0.8,0-1.3c0,0,0,0,0,0c0,0.5,0,0.9,0,1.4c0,0,0,0,0,0
				C15.3,21.3,15.3,20.7,15.3,20.1c0,0.6,0.1,1.2,0.1,1.9c0,0,0,0,0,0c0-0.8-0.1-1.6-0.1-2.4c0,0,0,0,0,0
				C15.3,19.7,15.3,19.9,15.3,20.1z M18.7,15.5C18.7,15.5,18.7,15.5,18.7,15.5c-0.1,0.3-0.1,0.5-0.1,0.8c0,0,0,0,0,0
				c0-0.1,0-0.2,0.1-0.3c0,0.1,0,0.2,0,0.3c0-0.1,0-0.2,0.1-0.3c0,0.2,0,0.4,0,0.8c0-0.4,0-0.5,0.1-0.7c0,0,0,0,0,0
				c0,0.2,0,0.3,0,0.5c0,0,0,0,0,0c0-0.1,0-0.3,0-0.4c0,0,0,0,0.1,0c0,0.3,0,0.6,0,0.9c0,0,0,0,0,0c0-0.2,0-0.4,0-0.6c0,0,0,0,0,0
				c0,0.2,0,0.4,0,0.7c0,0,0,0,0,0c0-0.2,0-0.3,0-0.5c0,0,0,0,0,0c0,0.2,0,0.4,0,0.6c0,0,0,0,0,0c0-0.2,0-0.3,0-0.5c0,0,0.1,0.1,0,0
				c0.1,0.1,0.1,0.1,0,0.1c0,0.2,0,0.4,0,0.5c0,0,0,0,0,0c0-0.1,0-0.2,0-0.3c0,0,0,0,0,0c0,0.1,0,0.3,0,0.6c0-0.3,0-0.3,0-0.4
				c0,0,0,0,0,0c0,0.1,0,0.2,0,0.3c0,0,0.1-0.1,0.1-0.1c0,0,0-0.2,0-0.3c0,0.1,0,0.1-0.1,0.1c0-0.1,0-0.3,0-0.4c0,0,0,0,0.1,0
				c0,0.3,0,0.7,0,1.1c0-0.1,0-0.1,0-0.1c0,0,0,0,0,0c0,0.1,0,0.1,0.1,0.4c0-0.5,0.1-0.8,0.1-1.1c0,0,0,0,0,0c0,0.4-0.1,0.8-0.1,1.3
				c0-0.2,0-0.2,0-0.2c0,0,0,0,0,0c0,0.2,0.1,0.5,0.1,0.7c0,0,0.1-0.1,0.1-0.1c0.1,0,0.1,0.1,0.2,0.1c0.4-0.3,0.8-0.6,1.3-1.1
				c-0.5,0.4-0.9,0.6-1.2,0.9c0.1-0.1,0.2-0.2,0.2-0.2c0,0,0,0,0,0c-0.1,0.1-0.2,0.2-0.4,0.5c0.1-0.3,0.2-0.5,0.2-0.6
				c-0.1,0.1-0.1,0.1-0.4,0.4c0.3-0.3,0.3-0.4,0.4-0.5c-0.1,0-0.1,0-0.3,0.1c0.2-0.2,0.4-0.3,0.5-0.4c0,0,0,0,0,0
				c-0.1,0.1-0.2,0.2-0.4,0.3c0.1-0.2,0.1-0.3,0.2-0.6c-0.2,0.3-0.3,0.4-0.3,0.4c0-0.2,0.1-0.5,0.2-0.7c0,0-0.1,0-0.1,0
				c0,0.2-0.1,0.4-0.1,0.6c0,0,0,0,0,0c0-0.2,0-0.5,0.1-0.7c-0.1,0-0.1,0-0.2,0c-0.1-0.2-0.3-0.4-0.4-0.6c0,0,0,0,0,0.2
				c0-0.3,0-0.5,0-0.7c0,0,0,0,0,0c0,0.1,0,0.3,0,0.5c0-0.4-0.1-0.6-0.1-0.9c-0.1,0.2-0.1,0.3-0.1,0.4c0,0,0,0,0,0
				c0-0.1,0-0.2,0.1-0.3c0,0,0,0,0,0c0,0.1,0,0.2-0.1,0.5c0.1-0.4,0.1-0.5,0.1-0.7c0,0,0,0,0,0c0,0.1-0.1,0.3-0.1,0.5
				C18.7,15.7,18.7,15.6,18.7,15.5z M19.2,20c0-0.1-0.1-0.1-0.1-0.1c-0.1,0.1-0.2,0.1-0.3,0.2c0,0.1,0,0.2,0.1,0.3
				c0.1-0.1,0.2-0.1,0.2-0.2c0-0.1-0.1-0.2-0.1-0.3C19.1,19.9,19.1,19.9,19.2,20z"/>
			<path class="st0" d="M21,16.5c0.5,0.2,1,0.4,1.6,0.5c1.1,0.2,2.3-0.6,2.5-1.7c0.1-0.6,0.1-1.1,0.2-1.7c0.1,0,0.1-0.1,0.1-0.1
				c0.2-0.1,0.3-0.1,0.5-0.2c0.2,0.6,0.4,1.2,0.5,1.6c0,0.2,0,0.1,0,0c-0.1,0.6-0.1,1-0.2,1.5c0,0,0,0,0,0c0-0.4,0.1-0.7,0.1-1.1
				c-0.1,0-0.1,0-0.2,0c0.1,0.7,0.1,1.4,0.2,2.1c0.2,0,0.1,0,0.1,0c0.1,0.1,0.3,0.2,0.4,0.2c0,0,0,0,0,0c0,0-0.1,0-0.2-0.1
				c0.1,0.1,0.1,0.2,0.2,0.2c0,0-0.1,0-0.2-0.1c0.2,0.1,0.2,0.2,0.4,0.4c-0.2-0.1-0.2-0.1-0.3-0.2c0.1,0.1,0.2,0.2,0.3,0.3
				c-0.1-0.1-0.2-0.1-0.3-0.2c0.1,0.1,0.2,0.2,0.3,0.3c-0.1-0.1-0.2-0.1-0.3-0.2c0.1,0.1,0.2,0.2,0.3,0.3c-0.2-0.1-0.2-0.1-0.4-0.2
				c0.2,0.2,0.2,0.2,0.4,0.3c-0.2-0.1-0.2-0.1-0.4-0.2c0.2,0.1,0.2,0.2,0.4,0.3c-0.2-0.1-0.2-0.1-0.4-0.2c0.1,0.1,0.1,0.1,0.2,0.2
				c-0.1-0.1-0.2-0.1-0.3-0.2c0.1,0.1,0.2,0.2,0.3,0.3c-0.2-0.1-0.2-0.1-0.3-0.2c0.1,0.1,0.1,0.1,0.1,0.2c-0.1,0-0.1,0-0.2-0.1
				c0.1,0.1,0.2,0.2,0.4,0.3c-0.2-0.1-0.3-0.2-0.4-0.2c0,0,0,0,0,0c0.1,0.1,0.2,0.1,0.2,0.2c0,0,0,0,0,0c-0.1-0.1-0.2-0.1-0.3-0.2
				c0,0,0,0,0,0c0.1,0.1,0.1,0.1,0.2,0.2c0,0,0,0,0,0C26.1,19,26,18.9,26,18.8c0,0,0,0,0,0c0.1,0.1,0.2,0.1,0.2,0.2c0,0,0,0,0,0
				C26.1,19,26,19,25.9,18.9c0,0,0,0,0,0c0.1,0,0.1,0.1,0.4,0.2c-0.3-0.1-0.4-0.2-0.7-0.3c0.3,0.2,0.4,0.3,0.8,0.5
				c-0.4-0.2-0.5-0.3-0.7-0.4c0,0,0,0,0,0c0.1,0.1,0.2,0.1,0.4,0.2c-0.2-0.1-0.3-0.1-0.6-0.2c0.2,0.1,0.3,0.2,0.4,0.2
				c-0.1,0-0.1,0-0.2,0c0,0,0.1,0.1,0.1,0.1c-0.1,0-0.2-0.1-0.5-0.2c0.3,0.1,0.4,0.2,0.6,0.3c-0.3-0.1-0.5-0.2-0.6-0.2
				c0-0.1,0-0.2,0-0.2c-0.1,0-0.3,0-0.4-0.1c0,0,0.1-0.1,0.1-0.1c-0.2-0.1-0.3-0.3-0.5-0.4c-0.2-0.1-0.4-0.2-0.6-0.2
				c0,0,0.1,0,0.3-0.1c-0.3,0-0.5,0-0.7,0c0-0.1,0-0.3,0-0.3c-0.2-0.1-0.4-0.1-0.6-0.2c-0.1,0-0.1,0-0.2,0
				C22.3,17.4,21.6,16.9,21,16.5C21,16.5,21,16.5,21,16.5z M25.3,18.1c0.1-0.2,0.2-0.4,0.2-0.5c0,0-0.1-0.1-0.2-0.1
				c-0.1,0.1-0.2,0.3-0.3,0.4C25.1,17.9,25.2,17.9,25.3,18.1z"/>
			<path class="st0" d="M10.1,19.3c0.2-0.2,0.3-0.4,0.5-0.5c0.8-0.6,1.6-1.2,2.4-1.8c0.5-0.4,1.1-0.7,1.7-1c-0.5,0.4-1,0.8-1.5,1.3
				c0,0,0,0,0,0c0.5-0.3,1-0.7,1.4-1c0,0.5,0,1.2,0,1.8c0,0,0,0-0.1,0c0-0.4,0-0.7,0-1.2c-0.1,0.4-0.2,0.7-0.3,1c0-0.1,0-0.3,0-0.5
				c0,0,0,0,0,0c0,0.1,0,0.1,0,0.3c0-0.1-0.1-0.1-0.1-0.1c0,0.1,0,0.1,0,0.3c0-0.1,0-0.2-0.1-0.4c0,0.2,0,0.3,0.1,0.5
				c-0.1-0.2-0.1-0.2-0.1-0.3c0,0-0.1,0-0.1,0c0,0.3,0.1,0.6,0.1,0.9c-0.1-0.2-0.2-0.4-0.3-0.7c0,0.2,0,0.3,0,0.6
				c-0.1-0.2-0.2-0.3-0.3-0.5c0,0.2,0.1,0.2,0.1,0.4c-0.1-0.1-0.1-0.1-0.2-0.3c0,0.3,0.1,0.5,0.1,0.7c0-0.1-0.1-0.2-0.3-0.5
				c0.1,0.3,0.2,0.4,0.2,0.5c0,0-0.1-0.1-0.1-0.1c0,0,0,0.1,0,0.1c-0.1,0-0.2-0.1-0.3-0.2c0.1,0.2,0.2,0.3,0.3,0.4c0,0,0,0,0,0
				c-0.2-0.2-0.3-0.3-0.5-0.5c0,0,0.1,0,0.1,0c0-0.1,0-0.1,0-0.2c-0.3,0-0.5-0.1-0.8-0.1c0.1,0.3,0.2,0.5,0.2,0.6
				c0.1,0.1,0,0-0.1-0.1c0,0,0,0,0,0c0.1,0.1,0.1,0.1,0.3,0.3c-0.2-0.2-0.3-0.2-0.7-0.5c0.3,0.2,0.4,0.3,0.5,0.4c0,0,0,0,0,0.1
				c-0.1-0.1-0.2-0.2-0.4-0.3c0,0,0,0,0,0c0.1,0.1,0.2,0.2,0.4,0.4c-0.3-0.2-0.4-0.3-0.5-0.4c0,0,0,0,0,0c0.1,0.1,0.1,0.1,0.4,0.3
				c-0.3-0.2-0.3-0.2-0.4-0.3c0,0,0,0,0,0c0.1,0.1,0.2,0.2,0.3,0.3c0,0,0,0,0,0c-0.1-0.1-0.3-0.2-0.4-0.3c0,0,0,0,0,0
				c0.1,0.1,0.3,0.2,0.4,0.3c0,0,0,0,0,0.1c-0.2-0.1-0.4-0.2-0.7-0.4c0.5,0.4,0.9,0.7,1.3,1.1c0,0,0,0,0,0c-0.5-0.4-0.9-0.7-1.6-1.3
				c0.8,0.7,1.4,1.3,2,1.8c0,0,0,0,0,0c-0.6-0.6-1.3-1.1-1.9-1.7c0,0,0,0,0,0.1c0.6,0.5,1.1,0.9,1.7,1.4c0,0,0,0,0,0
				c-0.5-0.4-1-0.8-1.5-1.2c0.6,0.6,1.3,1.2,1.9,1.8c0,0,0,0,0,0c-0.7-0.6-1.4-1.2-2.1-1.8c0,0-0.1,0.1-0.1,0.1
				c0.4,0.3,0.8,0.6,1.3,0.9c0,0,0,0,0,0c-0.4-0.3-0.8-0.5-1.2-0.8c0,0,0,0,0,0c0.1,0.1,0.3,0.2,0.4,0.3c0,0,0,0,0,0
				c-0.3-0.2-0.5-0.3-0.8-0.5c0,0,0,0,0,0c0.3,0.2,0.6,0.4,0.9,0.6c0,0,0,0,0,0c-0.4-0.2-0.7-0.5-1.1-0.7
				C10.2,19.2,10.2,19.2,10.1,19.3c0.5,0.2,1,0.6,1.4,0.9c0,0,0,0.1,0,0.1C11,19.9,10.5,19.6,10.1,19.3z"/>
			<path d="M22,18.6c0.2-0.1,0.5-0.1,0.7-0.2c-0.1,0.1-0.2,0.2-0.4,0.2c0,0,0.1,0.1,0.1,0.1c-0.1,0.1-0.3,0.1-0.4,0.2
				c-0.7,0.6-1.6,1.1-1.7,2.2c0,0.2,0,0.3,0,0.6c0-0.2,0-0.3-0.1-0.5c0,0.3,0,0.4,0.1,0.6c0,0,0,0-0.1,0c0-0.5-0.1-0.9-0.1-1.5
				c0,0.3,0,0.6-0.1,0.8c0,0,0,0,0,0c0-0.3,0-0.5,0-0.9c0,0.2-0.1,0.2-0.1,0.4c0-0.2,0-0.3,0-0.5c0,0,0,0-0.1,0.1
				c0-0.1,0.1-0.2,0.1-0.4c0,0.1-0.1,0.1-0.1,0.1c0-0.1,0-0.2,0-0.3c0,0-0.1,0-0.1,0.1c0-0.1,0-0.1-0.1-0.3c0,0.1,0,0.1-0.1,0.2
				c0-0.2,0-0.5,0-0.7c0,0,0,0,0.1,0c0,0.1,0,0.2,0,0.4c-0.1-0.1-0.2-0.2-0.2-0.2c0.5-0.5,1-0.9,1.4-1.4c0,0,0,0-0.1,0
				c-0.4,0.5-0.8,1-1.1,1.4c0,0,0.1,0.1,0.1,0.1c0.4-0.4,0.9-0.8,1.3-1.3c0,0,0,0,0.1,0.1c-0.4,0.3-0.8,0.7-1.2,1
				c0,0,0.1,0.1,0.1,0.1c0.2-0.2,0.3-0.5,0.6-0.7c0.4-0.3,0.9-0.5,1.4-0.6c0,0,0.2,0.2,0.2,0.4c0,0,0-0.1,0-0.1
				c-0.1,0.2-0.3,0.3-0.4,0.5c0,0,0,0,0,0c0,0-0.1,0,0,0c-0.1,0.1,0,0,0,0C21.8,18.7,21.9,18.6,22,18.6L22,18.6
				C21.9,18.6,21.9,18.6,22,18.6z"/>
			<path class="st0" d="M16.2,14.6c0,0.4,0,0.7,0.1,0.9c0,0,0,0,0,0c0-0.3,0-0.7,0-1c0,0,0,0,0,0c0,0.3,0,0.6,0,0.6
				c0-0.4,0-1.1,0-1.7c0,0,0,0,0.1,0.1c0-0.3,0-0.5,0.1-0.8c0,0,0,0,0,0.1c0-0.1,0-0.1,0-0.2c0,0.1,0,0.2,0,0.2
				c0-0.1,0.1-0.2,0.1-0.5c0.1,1.2,0.2,2.3,0.3,3.1c-0.3,0.3-0.5,0.4-0.7,0.6c0,0,0,0.1,0.1,0.3c-0.1-0.2-0.1-0.2-0.1-0.2
				c-0.1,0.4-0.2,0.7-0.4,1.2c0-0.6,0-1,0-1.6c0,0.5,0.1,0.7,0.1,1c0-0.4,0.1-0.8,0.1-1.3c0,0,0.1,0,0.1,0c0,0,0,0.1,0,0.1
				c0,0,0,0,0-0.1c0,0.2,0.1,0.3,0.1,0.3C16.1,15.5,16.1,15.1,16.2,14.6z"/>
			<path class="st0" d="M17.5,23.8c0,0.2,0,0.4-0.1,0.6c0,0,0,0,0,0c0-0.2,0.1-0.5,0.1-0.7c0,0.1,0,0.1,0,0.2c0-0.1,0.1-0.2,0.1-0.4
				c0,0,0,0.1,0,0.1c0,0,0.1,0,0.1-0.1c0,0,0,0,0,0c0.1,0,0.2,0,0.3,0c0,0,0,0,0-0.1c0.1,0,0.1,0,0.2,0c0.1,0.6,0.2,1.1,0.2,1.7
				c0,0-0.9,0.2-0.9,0.2c-0.2-0.5-0.2-0.9-0.3-1.4C17.4,23.8,17.5,23.8,17.5,23.8z"/>
			<path class="st0" d="M17.4,12.6c-0.1,0.2-0.1,0.2-0.1,0.4C17.4,12.9,17.4,12.8,17.4,12.6c0,0.2,0,0.3,0,0.4c0,0,0,0,0,0
				c0-0.1,0.1-0.2,0-0.1c0.1,0.9,0.2,2,0.3,3.1c-0.2-0.2-0.4-0.4-0.7-0.6c-0.1-0.8-0.1-1.8-0.2-2.8c0,0,0,0,0,0c0,0,0.1,0,0.2,0
				c0,0,0,0.1,0,0.1c0-0.1,0.1-0.1,0.2-0.2c-0.1,0.1-0.1,0.2-0.2,0.5c0.2-0.3,0.2-0.4,0.3-0.6c-0.1,0.2-0.1,0.3-0.1,0.4
				c0.1-0.1,0.1-0.2,0.2-0.3c0,0.1,0,0.1,0,0.2C17.3,12.8,17.3,12.8,17.4,12.6z M17.1,14.8c0,0,0,0.1,0,0.1c0,0,0.1,0.1,0.2,0.1
				c0.1,0,0.2-0.1,0.2-0.2c0-0.1-0.1-0.2-0.2-0.3c0,0,0.1,0-0.1,0c0.1-0.1,0,0-0.1,0.1c0.1,0,0.2,0,0.2,0.1c0,0.1,0,0.1,0,0.2
				C17.3,14.9,17.2,14.8,17.1,14.8z"/>
			<path class="st0" d="M17,23.9C17,24,17,23.9,17,23.9c0-0.1,0.1-0.1,0.1-0.1c0,0.5,0,0.9,0,1.4c-0.3,0-0.9,0-0.9,0
				c-0.1-0.5,0-1,0-1.7C16.5,23.7,16.8,23.8,17,23.9z"/>
			<path class="st0" d="M26.2,11.8c0-0.4,0-0.9-0.1-1.3c0,0,0,0-0.1,0c0,0.5,0.1,1,0.1,1.5c0,0,0,0,0,0c0-0.4,0-0.7-0.1-1.1
				c0,0,0,0-0.1,0c0,0.4,0,0.7,0.1,1.1c0,0,0,0-0.1,0c0-0.3,0-0.6,0-0.9c0,0,0,0-0.1,0c0,0.4,0,0.7,0.1,1.1c0,0,0,0-0.1,0
				c0-0.3,0-0.7-0.1-1.2c0,0.6,0,1,0,1.4c0,0,0,0,0,0c0-0.3,0-0.7,0-1c0,0,0,0,0,0c0,0.4,0,0.7,0,1.1c0,0,0,0,0,0c0-0.8,0-1.7,0-2.4
				c0,0,0,0.1-0.1,0.2c0,0,0,0,0,0c0.1-0.2,0.1-0.4,0.2-0.6c0,0.1,0,0.1,0,0.1c0,0,0.1,0,0.1,0C26.1,8.8,26.2,8,26.4,7
				c0,0.3-0.1,0.4-0.1,0.6c0,0.2,0,0.3,0,0.4c0,0.4,0,0.7,0,1c0,0,0-0.1,0-0.1C26.3,9.8,26.3,10.8,26.2,11.8
				C26.3,11.8,26.3,11.8,26.2,11.8z"/>
			<path class="st0" d="M19.4,24c0-0.1,0-0.2-0.1-0.5c0.1,0.4,0.3,0.6,0.3,0.9c0,0.2,0,0.4-0.1,0.5c-0.2,0.1-0.4,0.1-0.7,0.2
				c0-0.2-0.1-0.3-0.1-0.5c0-0.4,0.1-0.8,0.1-1.2c0-0.1,0.2-0.1,0.3-0.2c0,0.1,0,0.2,0.1,0.2C19.3,23.7,19.3,23.8,19.4,24
				C19.4,24,19.4,24,19.4,24z"/>
			<path class="st0" d="M22.5,23.4c-0.3-0.7,0-1.7,0.7-2c0.1-0.1,0.3-0.1,0.4-0.1c-0.1,0.2-0.1,0.5-0.2,0.7
				C23.2,22.5,22.9,22.9,22.5,23.4z"/>
			<path class="st0" d="M19.8,26.4c0-0.2,0-0.5,0-0.7c0,0,0,0,0,0C19.7,25.9,19.7,26.2,19.8,26.4C19.7,26.5,19.7,26.5,19.8,26.4
				c-0.1-0.1-0.1-0.2-0.1-0.3c0,0,0,0,0,0c0,0.1,0,0.3,0,0.4c0,0,0,0,0,0c0-0.1,0-0.1,0-0.2c0,0,0,0,0,0c0,0.1,0,0.2,0,0.4
				c-0.2-0.1-0.4-0.2-0.5-0.3c0,0,0,0,0,0c0-0.1,0-0.3-0.1-0.6c0,0.3,0,0.4,0,0.5c0,0,0,0-0.1,0c0-0.3,0-0.7,0.1-1
				c0-0.1,0.4-0.1,0.6-0.1C19.7,25.5,19.8,26,19.8,26.4C19.8,26.4,19.8,26.4,19.8,26.4z"/>
			<path class="st0" d="M19.7,23.2C19.7,23.2,19.7,23.1,19.7,23.2c0.2,0,0.4,0.1,0.4,0.2c0.1,0.3,0.2,0.6,0.2,1c0,0.1,0,0.3-0.1,0.4
				c0,0.1-0.2,0.2-0.3,0.1c-0.1-0.1-0.2-0.2-0.3-0.3c-0.1-0.4-0.2-0.9-0.2-1.3c0,0.1,0,0.2,0,0.4C19.6,23.5,19.6,23.3,19.7,23.2
				C19.6,23.2,19.7,23.2,19.7,23.2z"/>
			<path class="st0" d="M14.9,24.9C14.8,24.7,14.8,24.8,14.9,24.9c0.1-0.4,0.2-0.9,0.3-1.3c0.2,0,0.4,0.1,0.4,0.1
				c0.1,0.4,0.1,0.9,0.1,1.3C15.4,25,15.1,24.9,14.9,24.9z"/>
			<path class="st0" d="M14.6,26.3C14.6,26.2,14.6,26.2,14.6,26.3c0-0.4,0-0.8,0-1.2c0,0,0,0,0,0c0,0.1,0,0.1,0,0
				c0.2,0,0.4,0,0.8,0.1c-0.2,0.5-0.3,1-0.4,1.4C14.9,26.5,14.7,26.4,14.6,26.3z"/>
			<path class="st0" d="M12,23.8c-0.3-0.5-0.6-0.9-1-1.4c-0.1-0.1-0.1-0.2-0.1-0.3c0.1,0,0.3,0,0.3,0c0.3,0.3,0.6,0.6,0.9,1
				C12.2,23.3,12,23.6,12,23.8z"/>
			<path class="st0" d="M15.4,25.1c0,0,0,0.1,0,0.1C15.4,25.2,15.4,25.2,15.4,25.1c0.2,0,0.3,0,0.4,0c0,0,0,0,0,0.1c0,0,0-0.1,0-0.1
				c0.1,0.1,0.2,0.2,0.3,0.3c0,0,0-0.1,0-0.1c0,0,0,0,0,0c-0.1,0.4-0.1,0.7-0.2,1c0,0-0.2,0-0.2,0c-0.1-0.2-0.3-0.4-0.4-0.6
				C15.3,25.6,15.4,25.4,15.4,25.1C15.3,25.1,15.4,25.1,15.4,25.1z"/>
			<path class="st0" d="M17.5,26.9c-0.1-0.3-0.1-0.3-0.2-0.3c0.1,0,0.1,0,0,0c-0.1-0.4-0.1-0.8-0.2-1.2c0,0,0.1-0.1,0.1-0.1
				c0.2,0.2,0.5,0.3,0.6,0.5C17.8,26.1,17.7,26.4,17.5,26.9z"/>
			<path class="st0" d="M18,25.4c0.8-0.4,0.7,0.1,0.7,0.5c-0.1,0.3-0.3,0.5-0.5,0.7C18.1,26.2,18.1,25.8,18,25.4z"/>
			<path class="st0" d="M11.2,24.4c-0.3-0.7-0.6-1.4-0.9-2.2c0,0,0,0,0.1,0c0.3,0.7,0.6,1.4,0.9,2.1c0,0,0,0,0,0
				c0-0.1-0.1-0.1-0.1-0.2c0,0-0.1,0-0.1,0.1c0.5,0.7,0.9,1.5,1.3,2c0,0-0.1-0.1-0.2-0.2c-0.1-0.1-0.3-0.2-0.4-0.3
				C11.6,25.3,11.4,24.9,11.2,24.4z"/>
			<path class="st0" d="M16.2,25.4c0.4,0,0.6,0,1-0.1c-0.3,0.4-0.5,0.8-0.6,1.1C16.5,26.1,16.3,25.8,16.2,25.4z"/>
			<path class="st0" d="M20.5,24.9c0,0.1,0,0.3,0.1,0.6c-0.1-0.2-0.1-0.3,0-0.1c0,0.2-0.1,0.5-0.2,0.8c-0.2-0.3-0.4-0.7-0.6-1
				C20,25,20.2,25,20.5,24.9z"/>
			<path class="st0" d="M19.2,12.8c-0.3,0.1-0.5,0.3-0.8,0.4c-0.1,0-0.1,0-0.2,0c0.2-0.1,0.2-0.1,0.3-0.2c0,0,0,0,0,0
				c-0.1,0.1-0.2,0.1-0.3,0.2c0,0,0,0,0,0c0.1-0.1,0.2-0.1,0.3-0.2c-0.2,0.1-0.3,0.1-0.7,0.2c0.3-0.2,0.4-0.3,0.5-0.4
				c0.2-0.1,0.5-0.2,0.7-0.2c0,0,0.1,0,0.1-0.1c0,0,0,0,0,0c0,0,0,0,0.1,0c0,0,0,0,0,0c0,0,0,0,0.1,0c0,0,0,0,0,0c0,0,0,0,0.1,0
				c0,0,0.1,0,0.1-0.1c0.1,0,0.2-0.1,0.4-0.2C19.6,12.4,19.4,12.6,19.2,12.8z"/>
			<path class="st0" d="M10.1,19.3c0.5,0.3,1,0.7,1.4,1c0.1,0.1,0.2,0.2,0.4,0.3C11.2,20.1,10.6,19.8,10.1,19.3c0,0.1,0,0.1,0,0.1
				c0.4,0.3,0.7,0.5,1.1,0.8c0,0,0,0,0,0c-0.4-0.3-0.8-0.5-1.3-0.8c0,0,0,0,0,0c0.6,0.4,1.3,0.8,1.9,1.3c0,0,0,0,0,0
				c-0.6-0.4-1.2-0.8-1.8-1.1c0,0,0,0,0,0.1c0.3,0.2,0.6,0.4,0.8,0.5c0,0,0,0,0,0c-0.4-0.2-0.7-0.4-1.1-0.7c0,0,0,0,0,0
				c0.4,0.2,0.7,0.5,1.1,0.7c0,0,0,0,0,0c-0.4-0.3-0.8-0.5-1.2-0.8c0,0,0-0.1,0.1-0.1c0,0,0.1,0,0.2,0c0,0,0-0.1,0-0.1
				C9.9,19.3,10,19.3,10.1,19.3z"/>
			<path class="st0" d="M21.4,23.2c0-0.5,0-1,0-1.6c0,0,0.1,0,0.1,0c0,0.2-0.1,0.4-0.1,0.6c0,0,0,0,0,0c0-0.2,0.1-0.4,0.2-0.7
				c0,0.3,0,0.5,0,0.9c0.1-0.2,0.1-0.3,0.2-0.6c-0.1,0.4-0.1,0.6-0.1,0.8c0,0,0,0,0,0c0-0.1,0.1-0.2,0.2-0.7
				c-0.1,0.5-0.1,0.7-0.1,0.9c0,0,0,0,0,0c0-0.2,0.1-0.5,0.1-0.7c0,0,0,0,0,0c0,0.2-0.1,0.5-0.1,0.7c0,0,0,0,0,0
				c0-0.2,0.1-0.4,0.1-0.7c0,0,0.1,0,0.1,0c-0.1,0.4-0.3,0.7-0.4,1.1C21.6,23.2,21.5,23.2,21.4,23.2z"/>
			<path class="st0" d="M13.2,25.8c0-0.4,0-0.7-0.1-1.1c0,0,0.1,0,0.1,0c0,0.2,0,0.4,0.1,0.6c0-0.2,0-0.4,0-0.6c0,0.1,0,0.2,0,0
				c0.1,0.2,0.1,0.2,0.1,0.2c0,0,0.1,0,0.1,0c0,0.1,0,0.2,0,0.2c0,0.3,0,0.5,0,0.8c0-0.1,0-0.2-0.1-0.6c0,0.4,0,0.6,0.1,0.9
				c-0.1-0.1-0.3-0.2-0.4-0.3c0,0,0,0,0-0.1c0.1,0.1,0.2,0.1,0.3,0.2c0-0.4-0.1-0.7-0.1-1.1c0,0,0,0,0,0c0,0.3,0,0.6,0.1,0.9
				c0,0-0.1,0-0.1,0c-0.1-0.2-0.2-0.4-0.2-0.5C13.3,25.5,13.3,25.6,13.2,25.8C13.3,25.8,13.2,25.8,13.2,25.8z"/>
			<path class="st0" d="M20.4,24.8c0.3,0,0.4,0,0.7,0c-0.1,0.4-0.1,0.7-0.2,1C20.7,25.5,20.6,25.2,20.4,24.8z"/>
			<path class="st0" d="M11.9,25.7c0.1,0.1,0.3,0.2,0.4,0.3c0.1,0.3,0.3,0.5,0.4,0.8c0.1,0.1,0.1,0.3,0.2,0.5
				c-0.1-0.1-0.2-0.2-0.2-0.2c-0.3-0.4-0.6-0.7-0.9-1.1C11.9,25.9,11.9,25.8,11.9,25.7z"/>
			<path class="st0" d="M12.8,25.2c0-0.2,0-0.4,0-0.6c0,0,0.1,0,0.2,0.1c-0.1-0.1-0.1-0.1,0,0c0,0.3,0,0.6,0,0.9c0,0,0,0,0,0
				c0-0.3,0-0.6,0-0.9c0,0,0,0,0,0c0,0.4,0.1,0.7,0.1,1.1c0,0-0.1,0.1-0.1,0.1c-0.1-0.1-0.2-0.1-0.5-0.3c0.2,0,0.3,0,0.3,0.1
				c0-0.2-0.1-0.4-0.1-0.8c0,0.4,0.1,0.5,0.1,0.8c0-0.2-0.1-0.2-0.1-0.3c0,0,0,0.1-0.1,0.2c0-0.4,0-0.7-0.1-1c0,0,0,0,0.1,0
				C12.7,24.8,12.7,25,12.8,25.2C12.7,25.2,12.7,25.2,12.8,25.2z"/>
			<path class="st0" d="M15.6,0.6c1.2,0,2.5,0,3.1,0c-1.7-0.4-3.9,0.1-6.2,0.8c0.2-0.1,0.3-0.2,0.4-0.2C13.9,1,14.7,0.8,15.6,0.6z"
				/>
			<path d="M9.7,11.1c0.5-0.5,1.1-1,1.6-1.4c-0.1-0.1-0.2-0.2-0.3-0.3c-0.4,0.6-0.8,1.2-1.2,1.8C9.5,11.6,9.2,12,9,12.4
				c-0.1,0.1-0.2,0.3-0.3,0.4c0,0-0.1,0-0.1-0.1c0,0,0-0.1,0-0.1c0.1-0.1,0.1-0.2,0.2-0.3c0.1-0.1,0.1-0.1,0.2-0.2
				C9.2,11.8,9.5,11.5,9.7,11.1z"/>
			<path class="st0" d="M13.8,24.8c0.2,0.2,0.3,0.4,0.3,0.5c0,0,0-0.1,0.1-0.3c0,0.5-0.1,0.9-0.1,1.2c0,0-0.1,0-0.1,0
				c0-0.2-0.1-0.5-0.2-1c0.1,0.5,0.1,0.7,0.1,1c0,0,0,0-0.1,0C13.9,25.8,13.9,25.3,13.8,24.8z"/>
			<path class="st0" d="M15.6,0.6C14.7,0.8,13.9,1,13,1.2c0.7-0.2,1.3-0.5,2-0.6c1.2-0.2,2.5-0.2,3.8-0.1c-0.5,0-1-0.1-1.5-0.1
				c-0.5,0-1,0.1-1.5,0.1C15.8,0.5,15.7,0.5,15.6,0.6z"/>
			<path class="st0" d="M21.5,24.4C21.5,24.4,21.4,24.3,21.5,24.4c-0.1,0-0.1,0-0.1,0.1c0-0.1-0.1-0.2-0.1-0.4c0,0.2,0,0.3,0,0.4
				c0,0,0,0-0.1,0c0-0.4-0.1-0.8-0.1-1.1c0,0,0.1,0,0.1,0c0.1,0.2,0.1,0.3,0.2,0.5c0,0,0,0,0,0c0-0.1-0.1-0.2-0.1-0.3c0,0,0,0,0.1,0
				c0.1,0.3,0.2,0.6,0.2,0.9C21.6,24.4,21.5,24.4,21.5,24.4z"/>
			<path d="M14.6,31.2c0.9,0.9,2,0.6,3.1,0.7c-0.8,0-1.5,0-2.3,0c-0.5-0.3-0.9-0.6-1.4-0.9c0,0,0-0.1,0.1-0.1
				C14.3,31,14.4,31.1,14.6,31.2z"/>
			<path d="M9,5.7c0.5-0.7,1-1.3,1.5-2c0.1,0.1,0.2,0.2,0.3,0.3c-0.3,0.3-0.7,0.6-1,0.9C9.6,5.2,9.5,5.3,9.4,5.4
				C9,6,8.6,6.5,8.2,7.1c0,0,0,0,0,0C8.4,6.6,8.7,6.2,9,5.7z"/>
			<path class="st0" d="M11.9,25.7c0,0.1,0,0.2,0,0.3c-0.2-0.1-0.3-0.3-0.5-0.4c-0.1-0.4-0.2-0.7-0.3-1.1c0,0,0-0.1,0-0.1
				C11.4,24.9,11.6,25.3,11.9,25.7z"/>
			<path d="M26.3,6.6c-0.2-0.3-0.3-0.6-0.5-1c-0.3-0.4-0.5-0.8-0.8-1.1c-0.2-0.2-0.4-0.4-0.6-0.7c0,0,0,0,0.1-0.1
				c0.1,0.2,0.3,0.3,0.4,0.5C25.4,5.1,25.8,5.9,26.3,6.6z"/>
			<path class="st0" d="M14.5,25.1c0,0.4-0.1,0.9-0.1,1.3c-0.1,0-0.2-0.1-0.1-0.1c0-0.5,0.1-0.9,0.1-1.3
				C14.4,25.1,14.5,25.1,14.5,25.1z"/>
			<path d="M8.4,8.8c0.7-1.1,1.4-2.2,2.2-3.4c0,0,0,0,0,0C9.9,6.7,9.1,7.9,8.3,9C8.4,9,8.4,8.9,8.4,8.8z"/>
			<path class="st0" d="M8.9,19.8c0.4,0.3,0.5,0.4,0.7,0.5c0,0,0,0,0,0C9.4,20.3,9.2,20.2,8.9,19.8c0.2,0.3,0.3,0.4,0.5,0.5
				c-0.1,0-0.2,0-0.2,0c0-0.2,0-0.5-0.1-0.9c0.4,0.3,0.7,0.5,1,0.7c-0.3-0.2-0.5-0.2-0.7-0.4c0.2,0.1,0.3,0.2,0.4,0.3c0,0,0,0,0,0
				c-0.2-0.1-0.3-0.2-0.5-0.3c0,0,0,0,0,0c0.1,0.1,0.2,0.2,0.5,0.4C9.4,20.1,9.2,20.1,8.9,19.8z"/>
			<path d="M9.3,5.9c0.8-0.6,1.5-1.3,2.1-1.7C10.8,4.8,10,5.6,9.1,6.4C9.1,6.4,9,6.5,9,6.6c0,0,0,0-0.1,0C9,6.4,9.2,6.1,9.3,5.9z"/>
			<path d="M11.4,25.6c0.2,0.1,0.3,0.3,0.5,0.4c0.3,0.4,0.6,0.7,0.9,1.1c-0.1-0.1-0.3-0.2-0.5-0.4c0.2,0.2,0.3,0.4,0.5,0.6
				c-0.2-0.2-0.2-0.2-0.3-0.3c-0.2-0.2-0.3-0.5-0.5-0.7C11.8,26.1,11.6,25.8,11.4,25.6C11.4,25.6,11.4,25.6,11.4,25.6z"/>
			<path class="st0" d="M12.4,24.9c0-0.2,0-0.3,0-0.4c0,0,0.1,0,0.1,0c0,0.3,0,0.7,0.1,1c0,0-0.1,0-0.1,0
				C12.5,25.3,12.5,25.2,12.4,24.9c0,0.3,0,0.4,0,0.6c0,0-0.1,0-0.1,0c0-0.4-0.1-0.7-0.1-1.1c0,0,0.1,0,0.1,0
				C12.4,24.5,12.4,24.7,12.4,24.9z"/>
			<path d="M8.9,11.7c0.6-0.7,1.1-1.5,1.7-2.2c0,0,0.1,0.1,0.1,0.1c-0.2,0.2-0.5,0.4-0.7,0.7c-0.2,0.2-0.4,0.5-0.6,0.8
				c-0.2,0.3-0.4,0.6-0.5,0.9c0,0.1-0.1,0.1-0.1,0.2c0,0,0,0,0,0c0,0-0.1,0-0.1,0C8.7,12,8.8,11.9,8.9,11.7
				C8.9,11.8,8.9,11.7,8.9,11.7z"/>
			<path class="st0" d="M13.7,20.3c0,0.1,0.1,0.3,0.1,0.4c0,0,0,0,0,0C13.7,20.6,13.7,20.5,13.7,20.3c0,0.1-0.1,0.1-0.1,0.1
				c0,0.1,0.1,0.2,0.1,0.4c0,0-0.1,0-0.1,0c0-0.3,0-0.6,0-0.9c0,0,0.1-0.1,0.1-0.1c0.1,0.1,0.1,0.1,0.3,0.5
				c-0.2-0.3-0.3-0.3-0.3-0.4c0.1,0.4,0.2,0.8,0.4,1.2c0,0,0,0,0,0C13.9,20.7,13.8,20.5,13.7,20.3C13.7,20.2,13.7,20.3,13.7,20.3z"
				/>
			<path d="M9.4,5.4C9.5,5.3,9.6,5.2,9.8,5c0.8-0.6,1.6-1.1,2.5-1.7c-1,0.8-1.9,1.5-2.8,2.2C9.5,5.4,9.4,5.4,9.4,5.4
				C9.4,5.4,9.4,5.4,9.4,5.4z"/>
			<path class="st0" d="M24.2,25c0,0,0-0.1,0-0.1c0.1-0.2,0.2-0.4,0.3-0.6c0,0,0.1,0,0.1,0c0,0.3-0.1,0.6-0.1,0.9c0,0-0.1,0-0.1,0
				c0,0,0-0.1,0-0.1C24.4,25,24.3,25,24.2,25z"/>
			<path class="st0" d="M21.5,25.6c-0.1-0.4-0.1-0.5-0.2-0.7c0,0,0,0,0,0c0,0.1,0,0.2,0,0.3c0-0.1-0.1-0.1-0.1-0.2
				c0,0.1,0,0.2,0,0.3c0,0-0.1,0-0.1,0c0-0.3,0-0.5,0.1-0.8c0.1,0,0.2,0,0.2,0c0.1,0.3,0.1,0.5,0.2,0.8c0,0,0,0,0,0
				c0-0.2-0.1-0.4-0.1-0.6c0,0,0,0,0,0C21.4,24.9,21.5,25.2,21.5,25.6z"/>
			<path class="st0" d="M21.7,15c0.1,0,0.4,0,0.8,0c0,0,0,0-0.1-0.1c0,0,0.1,0,0.2,0c-0.2-0.1-0.4-0.1-0.5-0.1c0.1,0,0.2,0,0.4,0
				c-0.3-0.1-0.5-0.1-0.5-0.1c0.2,0,0.6,0,0.8,0c0,0,0,0-0.1,0c0,0.1-0.1,0.2-0.1,0.2c0,0,0.1,0,0.1,0c-0.1,0-0.1,0.1-0.2,0.1
				c0.1,0.1,0.1,0.2,0.2,0.2C22.3,15.2,21.9,15.1,21.7,15z"/>
			<path class="st0" d="M26.7,5.7c0.3,1.5,0.6,3.1,0.9,4.6c0,0,0,0,0,0C27.2,8.8,26.9,7.2,26.7,5.7C26.7,5.7,26.7,5.7,26.7,5.7z"/>
			<path class="st0" d="M13,26.5c0,0,0,0.1,0.1,0.1C13,26.6,13,26.6,13,26.5c-0.4-0.3-0.8-0.8-1.2-1.2c0.3,0.3,0.6,0.5,0.8,0.7
				c0,0,0,0,0,0l0,0C12.7,26.1,12.9,26.3,13,26.5z"/>
			<path d="M8.8,10.8c0.4-0.5,0.8-1.1,1.3-1.8c-0.5,0.8-0.9,1.4-1.2,2c0,0.1-0.1,0.2-0.1,0.4c0-0.1,0-0.2,0-0.3
				C8.7,10.9,8.7,10.9,8.8,10.8z"/>
			<path class="st0" d="M24.9,24.5c-0.1,0.4-0.2,0.6-0.3,0.9c0.1-0.1,0.1-0.2,0.1-0.2c0,0,0,0,0,0c-0.2,0.5-0.4,1.1-0.6,1.6
				c0,0,0,0,0,0c0.1-0.4,0.3-0.9,0.5-1.5c-0.1,0.2-0.2,0.2-0.3,0.4C24.6,25.3,24.7,25.1,24.9,24.5z"/>
			<path d="M9.2,8.6c0.3-0.4,0.6-0.8,0.9-1.2C9.7,8,9.3,8.7,8.9,9.3C8.8,9.5,8.7,9.7,8.6,9.9c0,0-0.1,0-0.1,0C8.7,9.4,9,9,9.2,8.6z"
				/>
			<path d="M9.1,10.9c0.4-0.6,0.8-1.1,1.3-1.7c0,0,0,0,0,0C9.9,9.9,9.5,10.6,9,11.2c-0.1,0.1-0.1,0.3-0.2,0.4c0,0,0,0,0,0
				C8.9,11.4,9,11.2,9.1,10.9z"/>
			<path d="M12,26.8c0.2,0.4,0.5,0.8,0.7,1.1c-0.1-0.2-0.3-0.3-0.5-0.5c-0.1-0.2-0.3-0.4-0.4-0.6c-0.1-0.1-0.1-0.2-0.1-0.3
				C11.8,26.6,11.9,26.7,12,26.8z"/>
			<path d="M14.1,30.2c0.3,0.2,0.6,0.4,1,0.7c0,0,0,0,0,0.1c-0.5-0.3-0.9-0.6-1.4-0.9c0,0,0,0-0.1,0c0,0,0,0,0.1-0.1
				C13.8,30,14,30.1,14.1,30.2z"/>
			<path class="st0" d="M27,11c-0.1-1.3-0.2-2.5-0.4-3.8c0,0,0,0,0,0C26.8,8.5,26.9,9.8,27,11C27,11,27,11,27,11z"/>
			<path class="st0" d="M26.8,11.4c-0.1-1.3-0.2-2.6-0.3-3.9c0,0,0,0,0,0C26.6,8.8,26.7,10.1,26.8,11.4
				C26.8,11.4,26.8,11.4,26.8,11.4z"/>
			<path d="M8.8,9.6C9.2,9,9.6,8.5,10,8c0,0,0,0,0,0C9.6,8.5,9.3,9,8.9,9.6c-0.1,0.2-0.3,0.5-0.4,0.7c0,0,0,0-0.1,0
				C8.6,10.1,8.7,9.8,8.8,9.6z"/>
			<path d="M8.8,11.7C8.8,11.7,8.8,11.7,8.8,11.7c0.2-0.3,0.4-0.5,0.5-0.8c0.3-0.4,0.7-0.8,0.9-1.1c-0.4,0.5-0.8,1.2-1.3,1.9
				C8.9,11.7,8.9,11.8,8.8,11.7C8.8,11.8,8.8,11.7,8.8,11.7z"/>
			<path d="M8.7,11.3c0-0.1,0.1-0.2,0.1-0.4c0.4-0.6,0.8-1.1,1.1-1.7c0,0,0,0,0.1,0c-0.2,0.3-0.4,0.6-0.6,0.9
				C9.2,10.6,8.9,11,8.7,11.3z"/>
			<path class="st0" d="M7.9,17.6c-0.1-1.1-0.2-2.1-0.4-3.2c0,0,0,0,0,0C7.7,15.5,7.8,16.5,7.9,17.6C7.9,17.6,7.9,17.6,7.9,17.6z"/>
			<path class="st0" d="M27,10.9c-0.1-1.1-0.2-2.2-0.3-3.4c0,0,0,0,0,0C26.9,8.6,27,9.7,27,10.9C27.1,10.8,27.1,10.9,27,10.9z"/>
			<path class="st0" d="M13.1,23.4c0.1-0.4,0.1-0.6,0.1-0.8c0,0,0,0,0,0C13.2,22.9,13.1,23.1,13.1,23.4c0.1-0.1,0.1-0.1,0.1-0.1
				c0-0.4,0.1-0.9,0.1-1.3c0,0,0,0,0,0c0,0.5-0.1,0.9-0.1,1.4C13.1,23.5,13,23.4,13.1,23.4c0-0.3,0-0.6,0-1.1
				C13.1,22.7,13.1,22.9,13.1,23.4z"/>
			<path class="st0" d="M24.6,26.9c0.1-0.3,0.2-0.6,0.3-0.8c0,0,0,0,0,0c-0.1,0.2-0.2,0.4-0.2,0.6c0,0,0,0,0,0
				c0.1-0.3,0.2-0.7,0.5-1.3c-0.1,0.3-0.1,0.4-0.1,0.5c0,0,0,0,0,0c0-0.1,0.1-0.2,0.1-0.2c0,0,0,0,0,0C24.9,26,24.7,26.5,24.6,26.9
				C24.6,26.9,24.6,26.9,24.6,26.9z"/>
			<path class="st0" d="M7.7,14.3c0.1,1,0.2,2.1,0.3,3.1c0,0,0,0,0,0C7.9,16.4,7.8,15.4,7.7,14.3C7.7,14.3,7.7,14.3,7.7,14.3z"/>
			<path class="st0" d="M16.3,0.3C15.2,0.5,14.1,0.8,13,1c0,0,0,0,0,0C14.1,0.7,15.2,0.5,16.3,0.3C16.3,0.2,16.3,0.3,16.3,0.3z"/>
			<path class="st0" d="M14.7,16.6c0,0.1,0,0.3,0.1,0.4c0,0,0,0-0.1,0c0-0.4-0.1-0.7-0.1-1.1c0,0,0,0,0.1,0c0.1,0.8,0.2,1.6,0.3,2.4
				c0,0,0,0-0.1,0C14.9,17.7,14.8,17.2,14.7,16.6C14.7,16.6,14.7,16.6,14.7,16.6z"/>
			<path class="st0" d="M17,26.4c-0.2,0.2-0.4,0.3-0.5,0.4c0-0.1,0-0.2-0.1-0.3C16.6,26.5,16.7,26.5,17,26.4z"/>
			<path class="st0" d="M18.7,31.9c-1,0-2,0.1-2.9,0.1c0,0,0,0,0,0C16.7,31.9,17.7,31.9,18.7,31.9C18.6,31.8,18.6,31.8,18.7,31.9z"
				/>
			<path class="st0" d="M13.9,23.5c0.1-0.9,0.2-1.8,0.3-2.7c0,0,0,0,0,0C14.1,21.8,14,22.6,13.9,23.5C13.9,23.5,13.9,23.5,13.9,23.5
				z"/>
			<path class="st0" d="M13.3,24.6c0-0.3,0.1-0.5,0.1-0.8c0,0,0.1,0,0.1,0c0,0.2-0.1,0.4-0.1,0.9c0.1-0.5,0.2-0.8,0.3-1.1
				c0,0,0,0,0,0c-0.1,0.3-0.1,0.7-0.2,1C13.4,24.6,13.3,24.6,13.3,24.6z"/>
			<path class="st0" d="M27.5,10.3c-0.1-1-0.2-2-0.3-3c0,0,0,0,0,0C27.3,8.3,27.5,9.3,27.5,10.3C27.6,10.3,27.5,10.3,27.5,10.3z"/>
			<path class="st0" d="M8.4,16.7c-0.1-1-0.2-2-0.3-3c0,0,0,0,0,0C8.2,14.7,8.3,15.7,8.4,16.7C8.4,16.7,8.4,16.7,8.4,16.7z"/>
			<path class="st0" d="M12.8,23.1c0-0.3,0-0.7,0.1-1c0,0,0,0,0,0c0,0.4,0,0.8,0,1.5c-0.1-0.3-0.1-0.3-0.1-0.4c0,0-0.1,0.1-0.1,0.1
				c0-0.5,0.1-1,0.1-1.5C12.8,22.3,12.8,22.7,12.8,23.1C12.8,23.1,12.8,23.1,12.8,23.1z"/>
			<path class="st0" d="M22.9,13.2c0-0.1,0-0.2,0-0.3c0,0,0,0-0.1,0c0,0.1,0,0.2,0,0.3c0,0,0,0-0.1,0c0.1,0,0.1,0.1,0.1,0.1
				c-0.1,0-0.1,0-0.1,0c0-0.1,0-0.3,0-0.4c0,0-0.1-0.1-0.2-0.1c0.2,0,0.3,0,0.5,0C23,12.9,23,13,22.9,13.2z"/>
			<path class="st0" d="M8.2,17.2C8.1,16.1,8,15,7.9,14c0,0,0,0,0,0C8.1,15,8.2,16.1,8.2,17.2C8.3,17.2,8.2,17.2,8.2,17.2z"/>
			<path class="st0" d="M9.4,6.8C9,7.5,8.6,8.2,8.2,8.9c0,0,0,0,0,0C8.6,8.1,9,7.4,9.4,6.8C9.4,6.7,9.4,6.7,9.4,6.8z"/>
			<path class="st0" d="M26.7,8.4c0.1,1,0.1,1.9,0.2,2.9c0,0,0,0,0,0C26.8,10.3,26.7,9.3,26.7,8.4C26.7,8.3,26.7,8.4,26.7,8.4z"/>
			<path class="st0" d="M13.7,22.9c0-0.5,0.1-0.9,0.1-1.4c0,0,0,0,0,0c0,0.7-0.1,1.3-0.1,2c0,0-0.1,0-0.1,0c0-0.1,0-0.2,0.1-0.4
				C13.7,23,13.7,23,13.7,22.9z"/>
			<path class="st0" d="M27,7.7c0.1,1,0.2,1.9,0.3,2.9c0,0,0,0,0,0C27.2,9.7,27.1,8.7,27,7.7C27,7.7,27,7.7,27,7.7z"/>
			<path class="st0" d="M9.7,19.2C9.7,19.2,9.7,19.2,9.7,19.2c-0.1,0.1-0.2,0.1-0.2,0.1c-0.2-0.2-0.4-0.3-0.5-0.7
				c0.2,0.2,0.4,0.5,0.6,0.7C9.6,19.2,9.6,19.2,9.7,19.2c-0.3-0.2-0.5-0.3-0.7-0.5c0,0,0,0,0,0C9.3,18.8,9.5,19,9.7,19.2
				C9.8,19.2,9.7,19.2,9.7,19.2z"/>
			<path class="st0" d="M15.4,26.7c-0.2,0.1-0.3,0.2-0.5,0.2c-0.1,0-0.2-0.2-0.4-0.3c0.3,0,0.5,0,0.7,0
				C15.3,26.6,15.4,26.7,15.4,26.7z"/>
			<path class="st0" d="M27.1,7.7c0.1,0.9,0.2,1.8,0.3,2.7c0,0,0,0,0,0C27.2,9.5,27.2,8.6,27.1,7.7C27.1,7.7,27.1,7.7,27.1,7.7z"/>
			<path class="st0" d="M15.3,18.3c-0.1-0.7-0.2-1.5-0.3-2.2c0,0,0,0,0,0C15.2,16.8,15.3,17.5,15.3,18.3
				C15.4,18.2,15.4,18.3,15.3,18.3z"/>
			<path class="st0" d="M17.2,19.4C17.1,19.7,17,20,17,20.3c-0.1,0-0.2-0.1-0.3-0.1c0-0.1,0.1-0.1,0.1-0.2c0,0.1,0,0.1,0,0.2
				c0-0.2,0.1-0.3,0.1-0.4c0,0.2,0,0.3,0,0.5C17,20.1,17,20.1,17,20c0,0,0.1,0.1,0.1,0.1c0-0.3,0-0.5-0.1-0.8
				C17.1,19.4,17.1,19.4,17.2,19.4z"/>
			<path class="st0" d="M23.2,2.2c0.6,0.5,1.3,1,1.9,1.5c0,0,0,0,0,0C24.4,3.2,23.8,2.8,23.2,2.2C23.2,2.3,23.2,2.2,23.2,2.2z"/>
			<path class="st0" d="M11.3,21.2c-0.5-0.2-1-0.5-1.5-0.7c0,0,0,0,0-0.1C10.3,20.6,10.8,20.9,11.3,21.2
				C11.3,21.1,11.3,21.2,11.3,21.2z"/>
			<path class="st0" d="M13.7,22.9c0,0.1,0,0.1,0,0.2c0,0.1-0.1,0.2-0.1,0.3c0-0.6,0.1-1.3,0.1-1.9c0,0,0,0,0,0
				C13.7,21.9,13.7,22.4,13.7,22.9z"/>
			<path class="st0" d="M26.8,13.8c0.1-0.9,0.1-1.7,0.2-2.6c0,0,0,0,0,0C26.9,12.1,26.9,12.9,26.8,13.8
				C26.8,13.8,26.8,13.8,26.8,13.8z"/>
			<path class="st0" d="M23.5,11.6c-0.5-0.1-1-0.2-1.6-0.3c0,0,0,0,0-0.1C22.5,11.4,23,11.5,23.5,11.6
				C23.5,11.6,23.5,11.6,23.5,11.6z"/>
			<path class="st0" d="M16.4,12.5c-0.8,0-1.5,0-2.3,0c0,0,0,0,0,0C14.9,12.5,15.6,12.5,16.4,12.5C16.4,12.5,16.4,12.5,16.4,12.5z"
				/>
			<path class="st0" d="M12,14.8c-0.3,0.3-0.3,0.4-0.4,0.5c0,0-0.1,0-0.2,0c0.1-0.1,0.1-0.1,0.2-0.2c-0.1,0-0.1,0-0.3,0
				C11.6,15,11.7,15,12,14.8z"/>
			<path class="st0" d="M11.4,25.6c0.2,0.2,0.3,0.5,0.5,0.7c-0.1-0.1-0.2-0.2-0.4-0.4c0.2,0.3,0.4,0.5,0.5,0.7c0,0-0.1,0-0.1,0.1
				C11.8,26.3,11.6,26,11.4,25.6z"/>
			<path class="st0" d="M6.7,11.5c0-1-0.1-2-0.1-3c0,0,0,0,0,0C6.6,9.5,6.7,10.5,6.7,11.5C6.7,11.5,6.7,11.5,6.7,11.5z"/>
			<path class="st0" d="M26.6,10.2c0-0.7-0.1-1.4-0.1-2.1c0,0,0,0,0,0C26.6,8.9,26.6,9.6,26.6,10.2C26.6,10.2,26.6,10.2,26.6,10.2z"
				/>
			<path class="st0" d="M27,8.5c0,0.8,0.1,1.5,0.1,2.3c0,0,0,0,0,0C27.1,10,27,9.3,27,8.5C27,8.5,27,8.5,27,8.5z"/>
			<path class="st0" d="M7.8,14.3C7.9,15.2,8,16,8.1,16.9c0,0,0,0,0,0C7.9,16,7.8,15.2,7.8,14.3C7.8,14.3,7.8,14.3,7.8,14.3z"/>
			<path class="st0" d="M9.3,20.5c0.3,0.1,0.7,0.3,1,0.4c0,0,0,0,0,0C9.9,20.8,9.6,20.6,9.3,20.5C9.3,20.5,9.3,20.5,9.3,20.5z"/>
			<path class="st0" d="M8.8,12.1c0-0.1,0.1-0.1,0.1-0.2c0,0,0.1-0.1,0.1-0.1C9,11.9,8.9,12,8.8,12.1L8.8,12.1
				C8.9,12.1,8.9,12.2,8.8,12.1C8.8,12.2,8.8,12.2,8.8,12.1c0,0.1,0,0.2-0.1,0.3c0,0,0,0,0,0c0,0,0,0.1-0.1,0.1l0,0c0,0,0,0,0,0.1
				l0,0c0,0,0,0,0,0.1l0,0c0,0,0,0,0,0.1c0,0,0,0,0,0c0,0,0,0,0,0l0,0c0-0.1,0.1-0.2,0.1-0.3c0,0,0,0,0,0l0,0
				C8.7,12.3,8.7,12.2,8.8,12.1C8.8,12.2,8.7,12.2,8.8,12.1C8.8,12.2,8.8,12.1,8.8,12.1z"/>
			<path class="st0" d="M13.6,29.9c-0.2-0.1-0.4-0.3-0.6-0.4c0,0,0,0,0,0C13.2,29.6,13.4,29.8,13.6,29.9
				C13.6,29.9,13.6,29.9,13.6,29.9z"/>
			<path class="st0" d="M8.6,12.6c0,0,0,0.1,0,0.1c0,0,0,0-0.1,0C8.5,12.7,8.6,12.7,8.6,12.6C8.6,12.6,8.6,12.6,8.6,12.6
				C8.6,12.6,8.6,12.6,8.6,12.6C8.6,12.6,8.6,12.6,8.6,12.6C8.6,12.6,8.6,12.6,8.6,12.6L8.6,12.6z"/>
			<path class="st0" d="M8.7,12.1c0,0,0.1,0,0.1,0C8.8,12.1,8.8,12.2,8.7,12.1C8.7,12.2,8.8,12.2,8.7,12.1
				C8.7,12.2,8.7,12.2,8.7,12.1C8.7,12.2,8.7,12.2,8.7,12.1C8.7,12.2,8.7,12.2,8.7,12.1z"/>
			<path d="M8.7,12.3C8.7,12.3,8.7,12.3,8.7,12.3C8.7,12.3,8.7,12.3,8.7,12.3C8.7,12.3,8.7,12.3,8.7,12.3z"/>
			<polygon points="20.6,20.8 20.6,20.9 20.6,20.9 			"/>
			<path class="st0" d="M8.7,12.3C8.7,12.3,8.7,12.3,8.7,12.3C8.7,12.3,8.7,12.2,8.7,12.3C8.7,12.2,8.7,12.2,8.7,12.3
				C8.7,12.2,8.7,12.3,8.7,12.3L8.7,12.3z"/>
			<path class="st0" d="M13.6,30C13.6,29.9,13.6,29.9,13.6,30C13.6,29.9,13.6,29.9,13.6,30C13.6,29.9,13.6,29.9,13.6,30
				C13.6,30,13.6,30,13.6,30z"/>
			<path class="st0" d="M13.6,30C13.6,30,13.6,30,13.6,30C13.6,30,13.6,30,13.6,30C13.6,30,13.6,30,13.6,30C13.6,30,13.6,30,13.6,30
				z"/>
			<path class="st0" d="M13.8,30.2C13.8,30.2,13.8,30.2,13.8,30.2C13.8,30.2,13.8,30.2,13.8,30.2z"/>
			<path class="st0" d="M13.8,30.2C13.8,30.2,13.8,30.2,13.8,30.2C13.8,30.2,13.8,30.2,13.8,30.2z"/>
			<polygon points="12.6,25.9 12.6,25.9 12.6,25.9 			"/>
			<path d="M5,16.5c0,0,0.1-0.1,0.1-0.2C5.1,16.4,5,16.4,5,16.5C5,16.5,4.9,16.5,5,16.5c-0.1-0.1-0.1-0.2-0.1-0.2c0.1,0,0.2,0,0.2,0
				c0,0,0.1,0.1,0,0.2c-0.1,0.1-0.2,0.2-0.3,0.4c0,0-0.1-0.1-0.1-0.1c0,0,0-0.1,0-0.1c0,0,0.1,0.1,0.1,0.1c0,0,0.1,0,0.1,0
				c0,0,0.1-0.1,0.1-0.1C5.1,16.6,5,16.6,5,16.5z"/>
			<path d="M4.5,7.3c0.1,0,0.1,0,0.2,0c0,0,0,0,0,0.1c-0.1,0-0.2,0-0.3,0c0.1-0.1,0.1-0.1,0.2-0.2C4.6,7.1,4.6,7.1,4.7,7
				c0,0-0.1,0-0.1,0c0,0,0,0.1,0,0c0,0,0.1,0,0.2,0c0,0.1,0,0.2-0.1,0.2C4.6,7.2,4.6,7.2,4.5,7.3z"/>
			<path d="M25,4.5c0.3,0.4,0.5,0.8,0.8,1.1C25.9,6,26,6.3,26.2,6.8C26,6.3,25.8,6,25.6,5.6c-0.2-0.3-0.4-0.6-0.5-0.8
				c-0.2-0.3-0.4-0.5-0.7-0.8C24.7,4.2,24.8,4.4,25,4.5z"/>
			<path d="M25,6.3c0.2,0.3,0.3,0.4,0.4,0.6c0,0,0,0,0,0C25.3,6.7,25.2,6.5,25,6.3c0.1,0,0.2-0.1,0.2-0.1c0.2,0.5,0.5,1,0.7,1.5
				c0,0,0,0-0.1,0c-0.1-0.2-0.2-0.4-0.2-0.6c0,0,0,0,0,0c0.1,0.2,0.2,0.5,0.3,0.7c0,0,0,0,0,0C25.5,7.4,25.3,6.9,25,6.3z"/>
			<path d="M9,12.4c0.3-0.4,0.6-0.8,0.8-1.1c0.6-0.5,1.1-1,1.5-1.3c-0.5,0.5-1.1,1.2-1.8,1.9c0,0,0,0,0,0C9.3,12,9.1,12.2,9,12.4z"
				/>
			<path d="M9.7,11.1c-0.2,0.3-0.5,0.7-0.7,1C9,12.1,9,12,9.1,11.9c0.1-0.2,0.2-0.3,0.4-0.5c0.5-0.6,1-1.1,1.6-1.9
				C10.5,10.2,10.1,10.7,9.7,11.1z"/>
			<path d="M9.4,11.4c-0.1,0.2-0.2,0.3-0.4,0.5C9,12,9,12,8.9,12.1C8.9,12,9,11.9,9,11.8c0.1-0.1,0.1-0.2,0.2-0.3
				c0.6-0.6,1.1-1.3,1.7-1.9c0,0,0,0,0,0C10.5,10.2,9.9,10.8,9.4,11.4z"/>
			<path d="M25.1,4.8c0.2,0.3,0.4,0.6,0.5,0.8c0.1,0.4,0.3,0.8,0.4,1.2c0,0,0,0,0,0c-0.1-0.2-0.2-0.4-0.3-0.6c0,0,0,0,0,0
				c-0.3-0.6-0.7-1.2-1-1.7C24.8,4.5,25,4.6,25.1,4.8z"/>
			<path d="M25.8,6.8C25.9,7,25.9,7.2,26,7.4c-0.2-0.5-0.5-1-0.7-1.5c0,0,0,0,0,0c-0.1-0.2-0.2-0.4-0.4-0.6c0,0,0,0,0,0
				c0.2,0.3,0.4,0.5,0.6,0.8C25.6,6.3,25.7,6.6,25.8,6.8z"/>
			<path d="M9.5,11.9c0.7-0.7,1.4-1.3,2.1-2c0,0,0,0,0,0c-0.8,0.8-1.7,1.6-2.3,2.2c-0.1,0.1,0,0,0.1-0.1C9.5,12,9.5,11.9,9.5,11.9z"
				/>
			<path d="M9.2,11.5c-0.1,0.1-0.1,0.2-0.2,0.3c0,0-0.1,0.1-0.1,0.1c0.2-0.3,0.4-0.6,0.5-0.9c0.5-0.5,0.9-1,1.3-1.4
				C10.3,10.2,9.8,10.9,9.2,11.5z"/>
			<path d="M9.5,11.9c0,0-0.1,0.1-0.1,0.1C9.4,11.9,9.5,11.9,9.5,11.9C9.5,11.8,9.5,11.8,9.5,11.9c0.6-0.8,1.3-1.4,2-2.1
				c-0.1-0.1-0.1-0.1-0.2-0.2C10.7,10.4,10.1,11.1,9.5,11.9z"/>
			<path d="M10,18.4c-0.2,0.1-0.3,0.2-0.4,0.2c0,0-0.1-0.1-0.2-0.1c0.1-0.1,0.2-0.2,0.3-0.4C9.7,18.2,9.8,18.2,10,18.4z"/>
			<path d="M9.3,10.9c-0.2,0.2-0.3,0.5-0.5,0.7c0.1-0.1,0.1-0.3,0.2-0.4c0.4-0.6,0.8-1.1,1.2-1.7c0,0,0,0,0,0
				C9.9,10,9.6,10.5,9.3,10.9z"/>
			<path d="M25.8,6.1c0.1,0.3,0.2,0.6,0.2,0.6c-0.3-0.6-0.7-1.4-1.2-2.2c0,0,0,0,0,0C25.1,5.1,25.4,5.6,25.8,6.1
				C25.8,6.1,25.8,6.1,25.8,6.1z"/>
			<path d="M13.4,12.2c0,0,0.1-0.1,0.1-0.1c1.2,0,2.5,0,3.7,0.1C16,12.2,14.7,12.2,13.4,12.2C13.4,12.2,13.4,12.2,13.4,12.2z"/>
			<path d="M25.8,6.8c-0.1-0.3-0.2-0.5-0.3-0.8c-0.2-0.3-0.4-0.7-0.6-1c0,0,0.1,0,0.1,0c0.3,0.7,0.7,1.4,1,2.1c0,0-0.1,0-0.1,0
				C25.9,7,25.8,6.9,25.8,6.8z"/>
			<path d="M25.3,5.9C25.3,5.9,25.3,5.9,25.3,5.9C25.5,6.5,25.7,7,26,7.5c0,0,0,0-0.1,0c-0.1-0.3-0.3-0.6-0.4-0.9l0,0
				c-0.2-0.4-0.4-0.8-0.6-1.2C25,5.6,25.2,5.8,25.3,5.9z"/>
			<ellipse cx="15.6" cy="12.2" rx="2.7" ry="0"/>
			<path d="M15.3,10c-0.3,0-0.9,0.1-1.5,0.1c0,0.1,0,0,0,0c0,0,0.1-0.1,0.1-0.1C14.4,10,15,10,15.3,10z"/>
			<path d="M25.5,6.6c0.1,0.3,0.2,0.6,0.3,1c-0.3-0.5-0.5-1.1-0.9-1.9C25.2,6.2,25.4,6.4,25.5,6.6C25.5,6.6,25.5,6.6,25.5,6.6z"/>
			<path d="M10.2,11.4c0.5-0.4,1.1-0.9,1.6-1.3c0,0,0,0,0,0C11.3,10.6,10.8,11,10.2,11.4C10.2,11.4,10.2,11.4,10.2,11.4z"/>
			<path d="M13,12c0.6,0,1.2,0,1.9,0c0,0,0,0,0,0C14.2,12,13.6,12,13,12C13,12,13,12,13,12z"/>
			<path d="M19.3,12.4C19.3,12.4,19.2,12.4,19.3,12.4C19.2,12.4,19.3,12.4,19.3,12.4z"/>
			<path d="M19.1,12.5C19.1,12.5,19,12.5,19.1,12.5C19,12.5,19.1,12.5,19.1,12.5z"/>
			<path d="M19.2,12.4C19.2,12.4,19.2,12.4,19.2,12.4C19.2,12.4,19.2,12.4,19.2,12.4z"/>
			<path d="M19.2,12.4C19.1,12.4,19.1,12.4,19.2,12.4C19.1,12.4,19.1,12.4,19.2,12.4z"/>
			<path d="M20.9,28.2c-0.1,0.1-0.1,0.1-0.2,0.2c0.2-0.1,0.3-0.2,0.4-0.2c0,0,0,0,0,0c0,0-0.1,0.1-0.2,0.1c0.1,0,0.2,0,0.3,0
				c-0.1,0.1-0.2,0.1-0.4,0.2c0.2-0.1,0.3-0.1,0.7-0.3c-0.3,0.2-0.4,0.2-0.5,0.3c0.2-0.1,0.2-0.1,0.4-0.1c-0.1,0.2-0.2,0.3-0.3,0.3
				c-0.1,0-0.3,0.1-0.4,0c-0.1,0-0.1-0.2-0.1-0.3c0-0.2,0.1-0.3,0.1-0.5C20.7,28,20.8,28.1,20.9,28.2z"/>
			<path d="M13.8,29.2c0,0,0,0,0.2,0.2c-0.2-0.2-0.3-0.2-0.4-0.3c0,0.1,0,0.1,0.1,0.2c-0.3-0.2-0.5-0.4-0.7-0.6c0,0,0,0,0,0
				c0.1,0.1,0.2,0.2,0.5,0.4c-0.2-0.2-0.2-0.3-0.5-0.5c0.2,0.2,0.3,0.2,0.3,0.3c0-0.1-0.1-0.1-0.2-0.4c0.4,0.2,0.5,0.3,0.7,0.5
				C13.9,28.9,13.8,29,13.8,29.2z"/>
			<path d="M18.7,15.5c0,0.1,0,0.2,0,0.4c0.1-0.3,0.1-0.4,0.1-0.5c0,0,0,0,0,0c0,0.1,0,0.3-0.1,0.7c0.1-0.4,0.1-0.5,0.1-0.5
				c0,0,0,0,0,0c0,0.1,0,0.2-0.1,0.3c0,0,0,0,0,0c0-0.1,0.1-0.2,0.1-0.4c0,0.3,0.1,0.6,0.1,0.9c0-0.3,0-0.4,0-0.5c0,0,0,0,0,0
				c0,0.2,0,0.3,0,0.7c0-0.2,0-0.2,0-0.2c0.1,0.2,0.2,0.4,0.4,0.6c0.1,0,0.1,0,0.2,0c0,0.3,0,0.5-0.1,0.7c0,0,0,0,0,0
				c0-0.2,0.1-0.4,0.1-0.6c0,0,0.1,0,0.1,0c-0.1,0.3-0.1,0.5-0.2,0.7c0,0,0.1-0.1,0.3-0.4c-0.1,0.3-0.2,0.4-0.2,0.6
				c0.2-0.1,0.3-0.2,0.4-0.3c0,0,0,0,0,0c-0.1,0.1-0.3,0.2-0.5,0.4C19.9,18.1,20,18,20,18c-0.1,0.1-0.2,0.2-0.4,0.5
				c0.3-0.3,0.3-0.3,0.4-0.4c-0.1,0.1-0.1,0.3-0.2,0.6c0.2-0.3,0.3-0.4,0.4-0.5c0,0,0,0,0,0c-0.1,0.1-0.1,0.1-0.2,0.2
				c0.4-0.3,0.7-0.5,1.2-0.9c-0.5,0.5-0.9,0.8-1.3,1.1c0,0-0.1,0-0.2-0.1c0,0-0.1,0.1-0.1,0.1c0-0.2-0.1-0.4-0.1-0.7c0,0,0,0,0,0
				c0,0,0,0.1,0,0.2c0-0.5,0.1-0.9,0.1-1.3c0,0,0,0,0,0c0,0.3,0,0.6-0.1,1.1c-0.1-0.3-0.1-0.3-0.1-0.4c0,0,0,0,0,0c0,0,0,0.1,0,0.1
				c0-0.4,0-0.7,0-1.1c0,0,0,0-0.1,0c0,0.1,0,0.2,0,0.4c0,0,0-0.1,0.1-0.1c0,0.2,0,0.3,0,0.3c-0.1,0.1-0.1,0.1-0.1,0.1
				c0-0.1,0-0.2,0-0.3c0,0,0,0,0,0c0,0.1,0,0.1,0,0.4c0-0.3,0-0.5,0-0.6c0,0,0,0,0,0c0,0.1,0,0.2,0,0.3c0,0,0,0,0,0
				c0-0.2,0-0.3,0-0.5c0,0,0,0.1,0-0.1c0.1,0.1,0,0,0,0c0,0.2,0,0.3,0,0.5c0,0,0,0,0,0c0-0.2,0-0.4,0-0.6c0,0,0,0,0,0
				c0,0.2,0,0.3,0,0.5c0,0,0,0,0,0c0-0.2,0-0.4,0-0.7c0,0,0,0,0,0c0,0.2,0,0.4,0,0.6c0,0,0,0,0,0c0-0.3,0-0.6,0-0.9c0,0,0,0-0.1,0
				c0,0.1,0,0.3,0,0.4c0,0,0,0,0,0c0-0.2,0-0.3,0-0.5c0,0,0,0,0,0c0,0.1,0,0.3-0.1,0.7c0-0.4,0-0.5,0-0.8c0,0.2,0,0.2-0.1,0.3
				c0-0.2,0-0.2,0-0.3c0,0.1,0,0.2-0.1,0.3c0,0,0,0,0,0C18.7,16.1,18.7,15.8,18.7,15.5C18.7,15.5,18.7,15.5,18.7,15.5z"/>
			<path d="M19.2,20c-0.1,0-0.2,0-0.2,0c0.1,0.1,0.1,0.2,0.1,0.3c0,0.1-0.1,0.1-0.2,0.2c0-0.1-0.1-0.2-0.1-0.3
				c0-0.1,0.2-0.1,0.3-0.2C19.2,19.9,19.2,19.9,19.2,20z"/>
			<path d="M15.3,20.1c0-0.2,0-0.4,0-0.6c0,0,0,0,0,0c0,0.8,0.1,1.6,0.1,2.4c0,0,0,0,0,0C15.4,21.3,15.3,20.7,15.3,20.1
				C15.3,20.1,15.3,20.1,15.3,20.1z"/>
			<path class="st0" d="M21.8,18.7C21.8,18.7,21.8,18.7,21.8,18.7C21.8,18.6,21.9,18.6,21.8,18.7C21.9,18.6,21.8,18.7,21.8,18.7
				L21.8,18.7z"/>
			<path class="st0" d="M22,18.6C21.9,18.6,21.9,18.6,22,18.6C21.9,18.6,21.9,18.6,22,18.6z"/>
			<path d="M25.3,18.1c-0.1-0.1-0.2-0.2-0.2-0.3c0.1-0.1,0.2-0.3,0.3-0.4c0.1,0,0.2,0.1,0.2,0.1C25.5,17.7,25.4,17.9,25.3,18.1z"/>
			<path class="st0" d="M21.8,18.7C21.8,18.7,21.7,18.7,21.8,18.7C21.7,18.7,21.8,18.7,21.8,18.7C21.8,18.7,21.8,18.7,21.8,18.7z"/>
			<path d="M17.1,14.8c0.1,0,0.1,0.1,0.2,0.1c0-0.1,0-0.1,0-0.2c-0.1,0-0.1,0-0.2-0.1c0.1-0.1,0.2-0.2,0.1-0.1c0.2-0.1,0.1,0,0.1,0
				c0.1,0.1,0.1,0.2,0.2,0.3c0,0-0.1,0.1-0.2,0.2c0,0-0.1,0-0.2-0.1C17.1,14.9,17.1,14.8,17.1,14.8z"/>
			<path class="st0" d="M8.9,12.1C9,12,9,12,9.1,11.9C9,12,9,12.1,8.9,12.1c0,0.1,0,0.2-0.1,0.2l0,0C8.8,12.3,8.8,12.2,8.9,12.1
				C8.8,12.2,8.8,12.2,8.9,12.1C8.9,12.2,8.9,12.1,8.9,12.1C8.9,12.1,8.9,12.1,8.9,12.1z"/>
			<path class="st0" d="M8.8,12.3c-0.1,0.1-0.1,0.2-0.2,0.3c0,0,0,0,0,0c0,0,0,0,0-0.1c0,0,0,0,0,0c0,0,0,0,0-0.1c0,0,0,0,0,0
				c0,0,0,0,0-0.1l0,0C8.7,12.4,8.7,12.4,8.8,12.3C8.8,12.3,8.7,12.3,8.8,12.3C8.8,12.3,8.8,12.3,8.8,12.3L8.8,12.3z"/>
			<path d="M8.7,12.2C8.8,12.2,8.8,12.1,8.7,12.2C8.8,12.1,8.8,12.1,8.7,12.2C8.8,12.1,8.8,12.2,8.7,12.2z"/>
			<path d="M8.8,12.3C8.8,12.3,8.8,12.3,8.8,12.3c0,0,0-0.1,0-0.1C8.8,12.2,8.8,12.3,8.8,12.3z"/>
			<path d="M8.8,12.3C8.7,12.4,8.7,12.4,8.8,12.3C8.7,12.4,8.7,12.4,8.8,12.3z"/>
			<path d="M8.7,12.3C8.7,12.3,8.7,12.2,8.7,12.3C8.7,12.2,8.7,12.2,8.7,12.3C8.7,12.2,8.7,12.3,8.7,12.3z"/>
			<path d="M8.9,12.1C8.9,12.1,8.9,12.2,8.9,12.1C8.9,12.2,8.9,12.1,8.9,12.1z"/>
			<path d="M8.6,12.6C8.6,12.6,8.6,12.6,8.6,12.6C8.6,12.6,8.6,12.6,8.6,12.6C8.6,12.6,8.6,12.6,8.6,12.6z"/>
			<path d="M8.7,12.4C8.7,12.5,8.7,12.5,8.7,12.4C8.7,12.5,8.7,12.5,8.7,12.4z"/>
			<path d="M8.7,12.5C8.6,12.5,8.6,12.5,8.7,12.5C8.6,12.5,8.6,12.5,8.7,12.5z"/>
			<path d="M8.6,12.6C8.6,12.6,8.6,12.6,8.6,12.6C8.6,12.6,8.6,12.6,8.6,12.6z"/>
		</g>
	</g>
	<rect x="1.2" y="5" class="st0" width="4.6" height="13.5"/>
</g>
</svg>
